<?xml version="1.0" encoding="utf-8"?>
<!-- Generator: Adobe Illustrator 17.1.0, SVG Export Plug-In . SVG Version: 6.00 Build 0)  -->
<!DOCTYPE svg PUBLIC "-//W3C//DTD SVG 1.1//EN" "http://www.w3.org/Graphics/SVG/1.1/DTD/svg11.dtd">
<svg version="1.1" xmlns="http://www.w3.org/2000/svg" xmlns:xlink="http://www.w3.org/1999/xlink" x="0px" y="0px"
	 viewBox="0 0 400 400" enable-background="new 0 0 400 400" xml:space="preserve">
<g id="Kauffman" display="none">
	<path display="inline" d="M53.3,158.7l-4.9,4.9l13.7,15.6l4.5,5.7v0.2c-1.2,0-2.1-0.2-3.1-0.2c-1.2,0-2.1,0.2-3.1,0.2
		c-1.2-1.8-2.5-3.5-3.9-5.1l-12.3-14.5c-0.2-0.2-1-0.4-1-0.2v19.7c-1,0-1.8-0.2-2.5-0.2l-2.5,0.2v-38.7c0.8,0,1.6,0.2,2.5,0.2
		c0.8,0,1.6-0.2,2.5-0.2v17.4c0,0.4,0.8,0.2,1.4-0.4c1-0.8,2.1-2,2.9-2.7l13.9-14.5l2.3,0.2c0.6,0,1.4-0.2,2.1-0.2L53.3,158.7z
		 M96.3,167.5H83.8l6.3-14.5L96.3,167.5z M92.2,145.6h-1.4l-17.6,39.5c0.6,0,1.2-0.2,2-0.2c0.6,0,1.4,0.2,2.1,0.2
		c1.6-5.3,3.5-10.2,5.5-15.2h14.5c2.3,5.1,4.3,10.6,5.9,15.2l2.9-0.2l2.9,0.2L92.2,145.6z M123.1,168.1c0,10,2.7,15,12.5,15
		c9,0,12.3-6.4,12.3-15.6v-21.1l1.6,0.2l1.6-0.2v22.7c0,11.1-6.6,16.8-16.6,16.8c-5.7,0-9.4-1.4-12.3-3.9c-3.5-3.3-4.1-8.2-4.1-12.7
		v-22.9c0.8,0,1.6,0.2,2.5,0.2c0.8,0,1.6-0.2,2.5-0.2L123.1,168.1L123.1,168.1z M166.5,146.4h20.1l-0.2,1.8l0.2,1.8
		c-1.8-0.4-3.3-0.6-5.1-0.6l-5.7-0.2h-4.3v14.3h8.8l5.1-0.2c0,0.4-0.2,1-0.2,1.6c0,0.4,0.2,1,0.2,1.6l-5.1-0.2h-8.8v19.3
		c-1,0-1.8-0.2-2.5-0.2l-2.5,0.2V146.4L166.5,146.4z M199.3,146.4h20.1l-0.2,1.8l0.2,1.8c-1.8-0.4-3.3-0.6-5.1-0.6l-5.7-0.2h-4.3
		v14.3h8.8l5.1-0.2c0,0.4-0.2,1-0.2,1.6c0,0.4,0.2,1,0.2,1.6l-5.1-0.2h-8.8v19.3c-1,0-1.8-0.2-2.5-0.2l-2.5,0.2V146.4L199.3,146.4z
		 M269.9,146.4c1.4,14.1,3.1,27.9,4.5,38.7l-2.7-0.2l-2.7,0.2c-1-11.3-2.1-23.6-2.9-29.1c-6.6,11.7-11.3,20.7-14.9,28.5h-0.2
		l-3.1-6.4c-3.7-7.4-7.6-14.9-11.3-22.1c-1.2,10.9-2.7,22.3-2.7,29.1c-0.8,0-1.4-0.2-2-0.2c-0.8,0-1.4,0.2-2,0.2
		c1.6-9.2,4.9-32.8,5.5-38.7h1.6c4.5,9,10,19.5,16,29.7c5.5-9.8,10.6-19.5,16.2-29.7L269.9,146.4L269.9,146.4z M306,167.5h-12.5
		l6.3-14.5L306,167.5z M301.7,145.6h-1.4l-17.6,39.5c0.6,0,1.2-0.2,2-0.2c0.6,0,1.4,0.2,2.1,0.2c1.6-5.3,3.7-10.4,5.7-15.2H307
		c2.3,5.1,4.3,10.6,5.9,15.2l2.9-0.2l2.9,0.2L301.7,145.6L301.7,145.6z M362.5,185.1h-1.8c-0.6-0.8-1.8-2.1-2.9-3.5l-24.4-27H333
		v30.5l-1.6-0.2c-0.6,0-1.2,0.2-1.6,0.2v-38.7h2.1l26.8,29.1h0.6v-29.1l1.6,0.2l1.6-0.2L362.5,185.1L362.5,185.1z M14.6,218.1
		c0,1.8,0,2.5,0.2,3.3c-0.8,0-1.6-0.2-1.8-0.2c-0.4,0-0.8,0-1.6,0.2l0.2-5.5v-9.4h-1.4c-0.2,0-2.5,0-3.7,0.2c0-0.2,0.2-0.6,0.2-1
		c0-0.2,0-0.6-0.2-1c2,0.2,4.5,0.2,6.4,0.2s4.1,0,6.4-0.2c0,0.4-0.2,0.8-0.2,1c0,0.2,0,0.4,0.2,0.8c-1.4-0.2-3.1-0.2-4.7-0.2v11.7
		L14.6,218.1z M24.4,204.5c-0.2,2.7-0.2,4.5-0.2,7.4c1-1.6,2.3-2,3.7-2c1.2,0,2.5,0.4,3.3,1.6c0.6,0.8,0.6,1.8,0.6,2.9v2.5
		c0,1.4,0,3.5,0.2,4.5c-0.4,0-1-0.2-1.6-0.2s-1.4,0.2-1.6,0.2c0.2-1.4,0.2-3.3,0.2-5.1c0-2.1,0-2.9-0.2-3.3c-0.2-1-1.2-1.6-2.1-1.6
		c-1,0-2,0.4-2.3,1.6c-0.2,0.6-0.2,1.2-0.2,2.7c0,3.1,0,3.3,0.2,5.5c-0.4,0-1-0.2-1.6-0.2s-1.2,0.2-1.4,0.2c0.2-3.3,0.2-4.3,0.2-9.4
		v-4.7c0-1,0-2.3-0.2-3.7c0.4,0,1,0.2,1.6,0.2c0.6,0,1,0,1.4-0.2L24.4,204.5L24.4,204.5z M37.5,215.8c0,1,0,4.5,3.9,4.5
		c1.2,0,2.5-0.6,3.3-1.6l0.2,0.2l-0.2,0.6l-0.2,1c-0.2,0.2-1.8,1.2-4.1,1.2c-1,0-2.9-0.2-4.3-1.6c-1.6-1.6-1.6-3.7-1.6-4.5
		c0-3.9,2.7-5.9,5.7-5.9c1,0,3.3,0,4.5,2.1c0.4,0.8,0.8,2,0.8,3.9L37.5,215.8L37.5,215.8z M42.8,214.6c0-1.2,0-3.9-2.3-3.9
		c-2.5,0-2.5,2.9-2.7,3.9H42.8z M58,212.1h1.6c1.8,0,2.9,0,3.9-0.2l-0.2,0.8c0,0.2,0,0.6,0.2,0.8H58v7.8c-0.6-0.2-1-0.2-1.8-0.2
		c-0.6,0-1.2,0-1.6,0.2c0.2-4.1,0.2-4.7,0.2-8.6c0-3.1-0.2-5.7-0.2-8c0.8,0,3.3,0.2,4.5,0.2c1.6,0,3.1,0,4.5-0.2l-0.2,1
		c0,0.2,0,0.4,0.2,0.8c-2.1-0.2-3.7-0.2-5.9-0.2v5.9L58,212.1z M71.5,209.7c3.7,0,6.1,2.1,6.1,6.1c0,3.7-2.3,6.1-6.1,6.1
		c-3.7,0-6.1-2.3-6.1-6.1C65.4,212.1,67.8,209.7,71.5,209.7z M71.5,220.9c2.5,0,3.1-2.9,3.1-5.1s-0.4-5.1-3.1-5.1
		c-2.5,0-2.9,3.1-2.9,5.1C68.4,217.7,68.8,220.9,71.5,220.9z M80.3,212.5c0-1,0-1.6-0.2-2.5l1.6,0.2c0.6,0,1,0,1.6-0.2
		c-0.2,1.2-0.2,4.1-0.2,5.3c0,0.6,0,2.7,0.2,3.1c0.2,1,1.2,1.6,2.1,1.6c1.6,0,2.1-1,2.3-1.4c0.4-0.6,0.4-2,0.4-2.9
		c0-1.6,0-4.3-0.2-5.7l1.4,0.2c0.4,0,0.8,0,1.6-0.2c-0.2,2.1-0.2,4.3-0.2,6.4c0,2.9,0,3.7,0.2,5.1c-0.6,0-1.2-0.2-1.6-0.2
		c-0.4,0-0.8,0-1.4,0.2v-2c-0.6,0.8-1.8,2.1-3.9,2.1c-1.4,0-2.7-0.6-3.3-2c-0.4-0.8-0.4-2-0.4-2.3V212.5z M104.3,218.5
		c0,1.2,0,2.3,0.2,2.9l-1.6-0.2c-0.6,0-1.2,0-1.6,0.2c0.2-1.2,0.2-3.3,0.2-4.5c0-1.2,0-3.1-0.2-3.9c-0.2-1.2-1.2-1.6-2.1-1.6
		s-1.8,0.6-2.1,1.4c-0.4,0.8-0.4,2.3-0.4,3.1c0,2.1,0,3.7,0.2,5.5l-1.6-0.2c-0.4,0-1,0-1.6,0.2c0.2-3.1,0.2-3.5,0.2-6.4
		c0-3.1,0-3.3-0.2-5.1c0.2,0,0.8,0.2,1.6,0.2c0.6,0,1,0,1.4-0.2c-0.2,0.8-0.2,0.8-0.2,2c1-1.4,2-2.1,3.7-2.1c2.5,0,4.1,1.6,4.1,4.1
		C104.5,214.6,104.3,217.4,104.3,218.5L104.3,218.5z M116.1,219.9c-0.6,0.8-1.8,2-3.7,2c-3.1,0-5.3-2.5-5.3-5.9
		c0-4.1,2.3-6.1,5.5-6.1c1.8,0,2.5,0.8,3.5,1.6c0-3.1,0-5.7-0.2-7.8c0.6,0,1,0.2,1.8,0.2c0.6,0,1,0,1.4-0.2
		c-0.2,2.9-0.2,5.7-0.2,8.6c0,0.4,0,7.8,0.2,9.2c-0.2,0-0.8-0.2-1.4-0.2c-0.6,0-1,0-1.4,0.2L116.1,219.9z M116.1,215.6
		c0-2.3-0.6-4.5-2.9-4.5s-2.9,2.5-2.9,4.3c0,1.8,0.4,4.9,2.9,4.9C114.9,220.3,116.1,218.9,116.1,215.6L116.1,215.6z M126,214.8
		c1.4-0.4,1.6-0.4,1.8-0.6v-0.4c0-1.8-1-2.5-2.3-2.5c-1.8,0-2.5,1.2-2.5,1.8h-0.8l0.2-1.2v-0.6c1.8-1.2,2.5-1.4,3.9-1.4
		c2.5,0,4.3,1.2,4.3,3.5v4.1c0,2.3,0,2.9,0.8,2.9c0.2,0,0.4,0,0.6-0.2v0.8c-0.6,0.2-1.4,0.6-2,0.6c-1.4,0-1.8-0.8-2-1.6
		c-0.8,1-2,1.6-3.1,1.6c-2.7,0-3.3-2-3.3-2.9c0-2.7,1.6-3.1,3.9-3.7L126,214.8L126,214.8z M127.8,215.6c-2.7,0.8-3.7,1-3.7,2.7
		c0,1.4,0.6,2.1,1.6,2.1c1.4,0,2.1-1,2.1-2.3L127.8,215.6L127.8,215.6z M137.7,205.8c0,0.4,0,0.8-0.2,4.3h2.5v1.4h-2.5v4.7
		c0,3.5,0.2,4.5,1.8,4.5c0.6,0,1-0.2,1.4-0.6v1.2c-0.8,0.4-2,0.8-2.7,0.8c-0.6,0-1.6-0.2-2.1-0.6c-0.8-0.6-1-1.8-1-2.7
		c0-1,0.2-5.3,0.2-7.2h-2v-1.4h1.8v-2.7C136.2,206.8,137,206,137.7,205.8L137.7,205.8z M142.2,206c0-1,0.8-1.8,1.6-1.8
		c1,0,1.8,0.8,1.8,1.8c0,1-0.8,1.6-1.8,1.6C143,207.8,142.2,207,142.2,206z M142.6,218.9V216c0-1.8,0-4.3-0.2-6.1
		c0.4,0,1,0.2,1.6,0.2c0.8,0,1.2,0,1.6-0.2v1.2c0,1-0.2,3.3-0.2,4.1v6.3c-0.4,0-0.8-0.2-1.4-0.2c-0.6,0-1.2,0-1.6,0.2L142.6,218.9
		L142.6,218.9z M154.2,209.7c3.7,0,6.1,2.1,6.1,6.1c0,3.7-2.3,6.1-6.1,6.1s-6.1-2.3-6.1-6.1S150.6,209.7,154.2,209.7z M154.2,220.9
		c2.5,0,2.9-2.9,2.9-5.1s-0.4-5.1-2.9-5.1s-2.9,3.1-2.9,5.1S151.6,220.9,154.2,220.9z M173.3,218.5c0,1.2,0,2.3,0.2,2.9l-1.6-0.2
		c-0.6,0-1.2,0-1.6,0.2c0.2-1.2,0.2-3.3,0.2-4.5c0-1.2,0-3.1-0.2-3.9c-0.2-1.2-1.2-1.6-2.1-1.6c-1,0-1.8,0.6-2.1,1.4
		c-0.4,0.8-0.4,2.3-0.4,3.1c0,2.1,0,3.7,0.2,5.5l-1.6-0.2c-0.4,0-1,0-1.6,0.2c0.2-3.1,0.2-3.5,0.2-6.4c0-3.1,0-3.3-0.2-5.1
		c0.2,0,0.8,0.2,1.6,0.2c0.6,0,1,0,1.4-0.2c-0.2,0.8-0.2,0.8-0.2,2c1-1.4,2-2.1,3.7-2.1c2.5,0,4.1,1.6,4.1,4.1
		C173.5,214.6,173.3,217.4,173.3,218.5L173.3,218.5z M188.6,209.7c3.7,0,6.1,2.1,6.1,6.1c0,3.7-2.3,6.1-6.1,6.1s-6.1-2.3-6.1-6.1
		S184.9,209.7,188.6,209.7z M188.6,220.9c2.5,0,2.9-2.9,2.9-5.1s-0.4-5.1-2.9-5.1s-3.1,3.1-3.1,5.1S185.8,220.9,188.6,220.9z
		 M203.2,206.2c-0.6-0.4-1.6-0.4-1.8-0.4c-0.4,0-1.6,0-1.6,1.6c0,0.6,0.4,2.1,0.6,2.9h2.5v1.2h-2.5v1.4c0,0.6,0,6.8,0.2,9
		c-0.4,0-1-0.2-1.6-0.2s-1.2,0-1.6,0.2c0.2-0.8,0.2-1,0.2-2.3v-7.8H196v-1.2h1.8c0.2-1.8,0.2-2.5,1-3.9c0.2-0.6,1.4-2.5,3.9-2.5h0.8
		c-0.2,0.4-0.2,0.8-0.2,1.2C203.4,205.2,203.4,205.6,203.2,206.2L203.2,206.2z M214.8,212.1c1.2,0,3.9,0,5.3-0.2l-0.2,0.8
		c0,0.4,0,0.6,0.2,0.8c-0.6,0-1.2,0-1.8-0.2H215v6.4c0.6,0,3.7,0,5.7-0.2c0,0.2-0.2,0.4-0.2,0.8c0,0.4,0,0.6,0.2,0.8
		c-1.4,0-2.9-0.2-4.5-0.2c-1.4,0-2.9,0-4.5,0.2c0-1,0-2,0.2-2.9v-5.5c0-1,0-5.7-0.2-8l4.3,0.2c1.2,0,2.7,0,4.5-0.2
		c0,0.2-0.2,0.4-0.2,0.8c0,0.4,0,0.8,0.2,1l-2.3-0.2h-3.3V212.1L214.8,212.1z M233.5,218.5c0,1.2,0,2.3,0.2,2.9l-1.6-0.2
		c-0.6,0-1.2,0-1.6,0.2c0.2-1.2,0.2-3.3,0.2-4.5c0-1.2,0-3.1-0.2-3.9c-0.2-1.2-1.2-1.6-2.1-1.6c-1,0-1.8,0.6-2.1,1.4
		c-0.4,0.8-0.4,2.3-0.4,3.1c0,2.1,0,3.7,0.2,5.5l-1.6-0.2c-0.4,0-1,0-1.6,0.2c0.2-3.1,0.2-3.5,0.2-6.4c0-3.1,0-3.3-0.2-5.1
		c0.2,0,0.8,0.2,1.6,0.2c0.6,0,1,0,1.4-0.2c-0.2,0.8-0.2,0.8-0.2,2c1-1.4,2-2.1,3.7-2.1c2.5,0,4.1,1.6,4.1,4.1
		C233.7,214.6,233.5,217.4,233.5,218.5L233.5,218.5z M240.6,205.8c0,0.4,0,0.8-0.2,4.3h2.5v1.4h-2.5v4.7c0,3.5,0.2,4.5,1.8,4.5
		c0.6,0,1-0.2,1.4-0.6v1.2c-0.8,0.4-2,0.8-2.7,0.8c-0.6,0-1.6-0.2-2.1-0.6c-0.8-0.6-1-1.8-1-2.7c0-1,0.2-5.3,0.2-7.2h-2v-1.4h1.8
		v-2.7C239,206.8,240,206,240.6,205.8L240.6,205.8z M245.1,219.1v-3.9c0-2.5,0-3.1-0.2-5.3l1.6,0.2c0.6,0,1,0,1.4-0.2
		c-0.2,1.2-0.2,1.4-0.2,2.5c0.6-1,1.6-2.7,3.5-2.7h0.6c-0.2,0.4-0.2,1.4-0.2,1.8c0,0.4,0,0.8,0.2,1l-0.2,0.2
		c-0.4-0.4-1.4-0.4-1.4-0.4c-1.2,0-1.8,0.6-2.1,1.4c-0.2,0.4-0.2,0.8-0.2,2.3s0,3.9,0.2,5.3c-0.2,0-1-0.2-1.4-0.2s-1,0-1.6,0.2
		L245.1,219.1L245.1,219.1z M256,215.8c0,1,0,4.5,3.9,4.5c1.2,0,2.5-0.6,3.3-1.6l0.2,0.2l-0.2,0.6l-0.2,1c-0.2,0.2-1.8,1.2-4.1,1.2
		c-1,0-2.9-0.2-4.3-1.6c-1.6-1.6-1.6-3.7-1.6-4.5c0-3.9,2.7-5.9,5.7-5.9c1,0,3.3,0,4.5,2.1c0.4,0.8,0.8,2,0.8,3.9L256,215.8
		L256,215.8z M261.3,214.6c0-1.2,0-3.9-2.3-3.9c-2.5,0-2.5,2.9-2.7,3.9H261.3L261.3,214.6z M269.3,211.7c0.6-1,1.8-2,3.7-2
		c3.3,0,5.1,2.9,5.1,6.1c0,2.7-1.6,6.1-5.5,6.1c-1.8,0-2.7-0.8-3.3-1.6c0,3.5,0,5.7,0.2,7.6c-0.4,0-0.8-0.2-1.6-0.2
		c-0.6,0-1,0-1.6,0.2c0.2-2.9,0.2-7.6,0.2-9c0-2.5,0-6.3-0.2-8.8c0.4,0,1,0.2,1.6,0.2c0.6,0,1,0,1.4-0.2V211.7z M272.2,211.1
		c-2.3,0-2.9,2.7-2.9,4.7c0,2.1,0.4,4.7,2.9,4.7c2.3,0,2.7-2.7,2.7-4.5C275.2,214.4,275,211.1,272.2,211.1z M281,219.1v-3.9
		c0-2.5,0-3.1-0.2-5.3l1.6,0.2c0.6,0,1,0,1.4-0.2c-0.2,1.2-0.2,1.4-0.2,2.5c0.6-1,1.6-2.7,3.5-2.7h0.6c-0.2,0.4-0.2,1.4-0.2,1.8
		c0,0.4,0,0.8,0.2,1l-0.2,0.2c-0.4-0.4-1.4-0.4-1.4-0.4c-1.2,0-1.8,0.6-2.1,1.4c-0.2,0.4-0.2,0.8-0.2,2.3s0,3.9,0.2,5.3
		c-0.2,0-1-0.2-1.4-0.2s-1,0-1.6,0.2L281,219.1L281,219.1z M292,215.8c0,1,0,4.5,3.9,4.5c1.2,0,2.5-0.6,3.3-1.6l0.2,0.2l-0.2,0.6
		l-0.2,1c-0.2,0.2-1.8,1.2-4.1,1.2c-1,0-2.9-0.2-4.3-1.6c-1.6-1.6-1.6-3.7-1.6-4.5c0-3.9,2.7-5.9,5.7-5.9c1,0,3.3,0,4.5,2.1
		c0.4,0.8,0.8,2,0.8,3.9L292,215.8L292,215.8z M297.2,214.6c0-1.2,0-3.9-2.3-3.9c-2.5,0-2.5,2.9-2.7,3.9H297.2L297.2,214.6z
		 M313.1,218.5c0,1.2,0,2.3,0.2,2.9l-1.6-0.2c-0.6,0-1.2,0-1.6,0.2c0.2-1.2,0.2-3.3,0.2-4.5c0-1.2,0-3.1-0.2-3.9
		c-0.2-1.2-1.2-1.6-2.1-1.6s-1.8,0.6-2.1,1.4c-0.4,0.8-0.4,2.3-0.4,3.1c0,2.1,0,3.7,0.2,5.5l-1.6-0.2c-0.4,0-1,0-1.6,0.2
		c0.2-3.1,0.2-3.5,0.2-6.4c0-3.1,0-3.3-0.2-5.1c0.2,0,0.8,0.2,1.6,0.2c0.6,0,1,0,1.4-0.2c-0.2,0.8-0.2,0.8-0.2,2
		c1-1.4,2-2.1,3.7-2.1c2.5,0,4.1,1.6,4.1,4.1L313.1,218.5L313.1,218.5z M318.7,215.8c0,1,0,4.5,3.9,4.5c1.2,0,2.5-0.6,3.3-1.6
		l0.2,0.2l-0.2,0.6l-0.2,1c-0.2,0.2-1.8,1.2-4.1,1.2c-1,0-2.9-0.2-4.3-1.6c-1.6-1.6-1.6-3.7-1.6-4.5c0-3.9,2.7-5.9,5.7-5.9
		c1,0,3.3,0,4.5,2.1c0.4,0.8,0.8,2,0.8,3.9L318.7,215.8L318.7,215.8z M323.8,214.6c0-1.2,0-3.9-2.3-3.9c-2.5,0-2.5,2.9-2.7,3.9
		H323.8L323.8,214.6z M329.5,212.5c0-1,0-1.6-0.2-2.5l1.6,0.2c0.6,0,1,0,1.6-0.2c-0.2,1.2-0.2,4.1-0.2,5.3c0,0.6,0,2.7,0.2,3.1
		c0.2,1,1.2,1.6,2.1,1.6c1.6,0,2.1-1,2.3-1.4c0.4-0.6,0.4-2,0.4-2.9c0-1.6,0-4.3-0.2-5.7l1.4,0.2c0.4,0,0.8,0,1.6-0.2
		c-0.2,2.1-0.2,4.3-0.2,6.4c0,2.9,0,3.7,0.2,5.1c-0.6,0-1.2-0.2-1.6-0.2s-0.8,0-1.4,0.2v-2c-0.6,0.8-1.8,2.1-3.9,2.1
		c-1.4,0-2.7-0.6-3.3-2c-0.4-0.8-0.4-2-0.4-2.3C329.3,215.8,329.5,214.2,329.5,212.5z M343.2,219.1v-3.9c0-2.5,0-3.1-0.2-5.3
		l1.6,0.2c0.6,0,1,0,1.4-0.2c-0.2,1.2-0.2,1.4-0.2,2.5c0.6-1,1.6-2.7,3.5-2.7h0.6c-0.2,0.4-0.2,1.4-0.2,1.8c0,0.4,0,0.8,0.2,1
		l-0.2,0.2c-0.4-0.4-1.4-0.4-1.4-0.4c-1.2,0-1.8,0.6-2.1,1.4c-0.2,0.4-0.2,0.8-0.2,2.3s0,3.9,0.2,5.3c-0.2,0-1-0.2-1.4-0.2
		s-1,0-1.6,0.2L343.2,219.1L343.2,219.1z M352.4,218.7c0.2,0.6,0.8,1.8,2.9,1.8c1.2,0,1.8-0.8,1.8-1.8c0-1-1-1.4-2.1-1.8
		c-0.4-0.2-1.4-0.6-1.6-0.6c-0.4-0.2-2-0.8-2-3.1c0-2.1,1.6-3.7,4.1-3.7c1.4,0,2.5,0.4,3.1,0.8c-0.4,1-0.6,1.6-0.6,2.1h-0.4
		c-0.4-0.8-0.8-1.8-2.3-1.8c-1.2,0-2,0.6-2,1.6c0,1,0.8,1.4,2.5,2c1.6,0.6,3.3,1,3.3,3.3c0,1.6-1.2,3.9-4.5,3.9
		c-1.4,0-2.3-0.4-3.5-1c0-0.2,0.2-0.6,0.4-1s0.2-0.8,0.2-1.2h0.6V218.7z M365.1,204.5c-0.2,2.7-0.2,4.5-0.2,7.4c1-1.6,2.3-2,3.7-2
		c1.2,0,2.5,0.4,3.3,1.6c0.6,0.8,0.6,1.8,0.6,2.9v2.5c0,1.4,0,3.5,0.2,4.5c-0.4,0-1-0.2-1.6-0.2c-0.6,0-1.4,0.2-1.6,0.2
		c0.2-1.4,0.2-3.3,0.2-5.1c0-2.1,0-2.9-0.2-3.3c-0.2-1-1.2-1.6-2.1-1.6c-1,0-2,0.4-2.3,1.6c-0.2,0.6-0.2,1.2-0.2,2.7
		c0,3.1,0,3.3,0.2,5.5c-0.4,0-1-0.2-1.6-0.2s-1.2,0.2-1.4,0.2c0.2-3.3,0.2-4.3,0.2-9.4v-4.7c0-1,0-2.3-0.2-3.7c0.4,0,1,0.2,1.6,0.2
		s1,0,1.4-0.2L365.1,204.5L365.1,204.5z M375.6,206c0-1,0.8-1.8,1.6-1.8c1,0,1.8,0.8,1.8,1.8c0,1-0.8,1.6-1.8,1.6
		C376.4,207.8,375.6,207,375.6,206z M375.8,218.9V216c0-1.8,0-4.3-0.2-6.1c0.4,0,1,0.2,1.6,0.2c0.8,0,1.2,0,1.6-0.2v1.2
		c0,1-0.2,3.3-0.2,4.1v6.3c-0.4,0-0.8-0.2-1.4-0.2s-1.2,0-1.6,0.2L375.8,218.9L375.8,218.9z M384.6,211.7c0.6-1,1.8-2,3.7-2
		c3.3,0,5.1,2.9,5.1,6.1c0,2.7-1.6,6.1-5.5,6.1c-1.8,0-2.7-0.8-3.3-1.6c0,3.5,0,5.7,0.2,7.6c-0.4,0-0.8-0.2-1.6-0.2
		c-0.6,0-1,0-1.6,0.2c0.2-2.9,0.2-7.6,0.2-9c0-2.5,0-6.3-0.2-8.8l1.4,0.2c0.6,0,1,0,1.4-0.2L384.6,211.7z M387.7,211.1
		c-2.3,0-2.9,2.7-2.9,4.7c0,2.1,0.4,4.7,2.9,4.7c2.3,0,2.7-2.7,2.7-4.5C390.7,214.4,390.5,211.1,387.7,211.1z"/>
</g>
<g id="polsinelli" display="none">
	<path display="inline" d="M8.1,178.1v-41.7c0-1.6,0-1.6,1.6-1.6h74.3c1.4,0,1.4,0,1.4,1.6c0,16.9,0,33.9,0.2,50.8v1
		c0,0.4-0.2,0.6-0.6,0.6H71.3c-1.6,0-1.6,0-1.6-1.6v-34.9c0-2.9,0.4-2.5-2.5-2.5H26.3c-2.9,0-2.5-0.4-2.5,2.3v67.7
		c0,2.3,0.2,1.9-2.1,1.9H10c-2.1,0-1.9,0.2-1.9-1.9L8.1,178.1z M47.2,188.4H33.1c-1.6,0-1.6,0-1.6-1.6v-28.3c0-1.4,0-1.4,1.4-1.4
		h28.9c1.4,0,1.4,0,1.4,1.4v28.3c0,1.4,0,1.4-1.4,1.4C56.7,188.4,51.9,188.4,47.2,188.4L47.2,188.4z M228.5,207.8
		c-0.2,0.8-0.2,1.4-0.2,1.9v26.8c0,1.2,0,1.2-1.2,1.2h-3.7c-0.8,0-1.2-0.4-1-1.2v-36.8c0-1.9-0.2-1.7,1.7-1.7c1.4,0,2.9-0.4,3.9,0.2
		c1.2,0.6,1.7,1.9,2.5,2.9l19.8,25.4c0.4,0.6,0.8,1.2,1.6,1.6v-29.3c0-0.6,0.2-1,1-1h3.9c0.6,0,1,0.2,0.8,1v37
		c0,2.1,0.2,1.7-1.9,1.7c-1.4,0-2.7,0.4-3.7-0.2c-1.2-0.6-1.7-1.9-2.5-2.9l-20.4-26C229.1,208.4,228.9,208,228.5,207.8L228.5,207.8z
		 M189.9,206.8l-3.3-1.9c-5-2.7-10.3-2.9-15.7-1.4c-1.4,0.4-2.5,1-3.5,1.9c-1.6,1.4-2.1,3.1-1.6,5c0.6,1.7,1.9,2.5,3.7,2.9
		c1.2,0.2,2.1,0.4,3.3,0.4c2.7,0,5.4,0,8.3,0.2c3.3,0.2,6.6,0.8,9.5,2.5c6.2,3.3,6.8,12.4,2.3,16.9c-1.2,1.2-2.5,2.1-4.1,2.9
		c-2.5,1.2-5.2,1.9-7.9,2.1c-4.3,0.4-8.5,0.4-12.6-1c-3.9-1.2-7.4-3.1-10.3-6c-0.8-0.8-0.8-0.8,0-1.7l2.5-2.5c0.4-0.4,0.8-0.4,1.2,0
		c0.8,0.6,1.6,1.4,2.5,1.9c6.4,4.3,13.4,4.8,20.7,2.5c1-0.2,1.7-0.8,2.5-1.4c3.7-2.3,2.9-7.8-0.6-9.3c-1.7-0.8-3.7-1.2-5.6-1.2h-9.5
		c-1.9,0-3.9-0.4-5.6-1c-7.8-2.9-7.9-12-3.5-16.3c2.5-2.5,5.8-4.1,9.3-4.7c7.2-1.4,13.8,0.2,19.8,4.1c1.2,0.8,1.2,0.8,0.4,1.9
		C191.7,204.5,190.9,205.8,189.9,206.8L189.9,206.8z M270,217.7v-19.4c0-0.4,0.2-0.6,0.6-0.6h30.8c0.8,0,1.2,0.2,1.2,1v3.9
		c0,0.6-0.2,1-1,1h-25.2c-0.6,0-0.8,0.2-0.8,1v8.5c0,1,0.6,1,1.2,1h9.5c2.7,0,2.7,0,2.7,2.7c0,1,0.4,2.1-0.2,2.9
		c-0.6,0.6-1.7,0.2-2.7,0.2h-9.3c-1.2,0-1.4,0-1.4,1.4v9.3c0,1.6,0,1.6,1.6,1.6h23.8c2.7,0,2.3-0.4,2.3,2.5v2.3c0,0.6-0.2,1-1,1H271
		c-1.4,0-1.4,0-1.4-1.6C270,229.9,270,223.9,270,217.7z M126.7,217.5v-19.2c0-0.4,0.2-0.6,0.6-0.6h4.5c0.4,0,0.6,0.2,0.6,0.6v31.8
		c0,1.6,0,1.6,1.6,1.6h20.9c1.6,0,1.7,0,1.7,1.6v2.5c0,1.9,0,1.7-1.7,1.7h-27.5c-0.6,0-0.8-0.2-0.8-0.8v-1.2
		C126.7,229.5,126.7,223.5,126.7,217.5L126.7,217.5z M319.6,214.8v15.5c0,1.6,0,1.6,1.6,1.6h20.9c1.6,0,1.6,0,1.6,1.6v3.3
		c0,0.6-0.2,1-1,1H315c-0.8,0-1.2-0.2-1.2-1v-37.8c0-0.8,0.2-1.2,1-1.2h3.7c0.8,0,1.2,0.2,1,1v5.8
		C319.6,208,319.6,211.3,319.6,214.8L319.6,214.8z M350.5,217.7v-19.2c0-0.6,0.2-0.8,0.8-0.8h3.9c0.6,0,1,0.2,1,0.8v32.4
		c0,0.6,0.2,1,0.8,1h22.5c0.6,0,0.8,0.2,0.8,0.8v4.3c0,0.4-0.2,0.8-0.6,0.8h-27.7c-1.2,0-1.2,0-1.2-1.4
		C350.5,230.1,350.5,223.9,350.5,217.7L350.5,217.7z M204.1,217.7v-19.2c0-0.6,0.2-0.8,0.8-0.8h4.1c0.6,0,0.8,0.2,0.8,0.8v37.6
		c0,1.4,0,1.4-1.6,1.4H205c-1,0-1.2-0.4-1.2-1.2v-11.6C204.1,222.5,204.1,220,204.1,217.7z M386.3,217.7v-19.2
		c0-0.6,0.2-0.8,0.8-0.8h4.1c0.6,0,0.8,0.2,0.8,0.8v37.2c0,1.9,0,1.7-1.7,1.7h-2.7c-1,0-1.2-0.4-1.2-1.2V217.7L386.3,217.7z
		 M110.6,203.7c-6-6.4-13.8-8.3-22.1-6c-16.9,4.5-19.2,23.7-10.3,33.5c4.3,4.8,9.9,7,16.3,7c1.2,0,2.1,0,3.3-0.2
		c9.5-1.4,16.9-8.3,17.8-18C116.4,214,114.9,208.4,110.6,203.7L110.6,203.7z M109.5,221.7c-1.6,5.8-5.6,9.3-11.4,10.7
		c-1.2,0.2-2.3,0.4-3.3,0.4c-7.6,0-13.6-4.5-15.3-11.2c-2.1-8.3,3.3-16.9,11.8-18.4c5.2-1,10.1,0.2,14,3.7
		C109.7,210.9,111,215.9,109.5,221.7L109.5,221.7z M67,207.6c-0.4-4.5-2.7-7.4-6.8-8.9c-1.7-0.6-3.5-0.8-5.4-0.8H33.5
		c-0.6,0-1,0.2-1,0.8v38.4c0,0.6,0.2,0.8,0.8,0.8h3.9c0.8,0,1-0.4,1-1v-14.3c0-1.9-0.2-1.7,1.7-1.7h16.9c5.2-0.2,8.9-3.5,9.9-8.5
		C67.2,210.5,67.2,208.9,67,207.6L67,207.6z M61.2,210.9c-0.4,2.1-1.6,3.3-3.7,3.7c-0.8,0.2-1.6,0.2-2.5,0.2H39.5
		c-1.2,0-1.2,0-1.4-1.4v-8.5c0-1.4,0-1.4,1.4-1.4h15.9C59.2,203.5,62.1,205.8,61.2,210.9L61.2,210.9z"/>
</g>
<g id="sprint" display="none">
	<g display="inline">
		<path d="M18.1,247.5c-4.6,0-9.1-0.6-12.7-1.4l0.6-9.5c3.6,1.2,8.5,2.4,13.1,2.4c6.9,0,12.5-2.8,12.5-9.5
			c0-13.1-27.5-7.5-27.5-27.5c0-10.7,8.5-18,23-18c3.8,0,7.5,0.4,11.3,1.2l-0.6,8.9c-3.6-1.2-7.7-1.8-11.3-1.8
			c-7.7,0-11.9,3.6-11.9,8.7c0,12.5,27.5,7.7,27.5,27.1C42.3,239.2,33.2,247.5,18.1,247.5L18.1,247.5z M71.2,208.1
			c-7.5,0-11.5,8.7-11.5,16.4v14.1c2.2,0.6,4.6,1,7.3,1c7.9,0,13.3-4.7,13.3-17C80.3,213.3,77.3,208.1,71.2,208.1L71.2,208.1z
			 M66.6,247.1c-2.6,0-4.6,0-6.9-0.6v19.8h-9.9v-65.5h9.3c0,2.4,0,6.1-0.6,8.5h0.2c2.6-5.7,7.9-9.5,15-9.5c10.9,0,17,7.7,17,21.4
			C90.8,237.6,82,247.1,66.6,247.1z M122.6,209.7c-9.1-1.6-13.7,4.7-13.7,18.4v18.6h-9.9v-45.5h9.5c0,2.6-0.2,6.5-1,10.1h0.2
			c2-6.1,6.7-11.9,15.2-11.1L122.6,209.7L122.6,209.7z M131.7,201h9.9v45.5h-9.9V201z M136.9,194.3c-3.6,0-6.3-2.8-6.3-6.1
			s3-6.1,6.3-6.1s6.3,2.6,6.3,6.1C143,191.5,140.2,194.3,136.9,194.3z M182.6,246.5v-29.3c0-5.7-1.6-8.9-6.9-8.9
			c-6.9,0-12.1,7.3-12.1,16.2v22h-9.9V201h9.5c0,2.4-0.2,6.3-0.6,8.9c2.8-5.9,8.3-9.9,16-9.9c10.5,0,13.9,6.5,13.9,14.6v31.9H182.6z
			 M219.8,247.3c-9.9,0-12.9-3.8-12.9-13.9v-24.9H198V201h8.9v-14.4l9.9-2.6v17.2h12.3v7.5H217v21.8c0,6.7,1.4,8.7,6.1,8.7
			c2,0,4.4-0.2,6.1-0.8v8.1C226.3,246.9,223,247.3,219.8,247.3L219.8,247.3z M315.6,217.8c15.6-19.8,27.7-42.9,27.7-59.6
			c0-8.7-6.3-14.8-14.4-19.4C328.8,157.1,322.5,199.4,315.6,217.8z M264.5,266.5c36.4-12.1,89.3-40,125.9-64.9
			c3.2-2.2,5.5-4,5.5-7.5c0-5.9-10.9-13.9-16.2-17C350.8,206.8,293.2,251.1,264.5,266.5z M298.4,241.4c22.4-15.2,55-44.1,66.1-59.8
			c2.6-3.8,4.6-5.7,4.6-9.7c0-6.3-7.5-10.9-12.9-14.2C343.3,187.8,314.2,225,298.4,241.4L298.4,241.4z M318.7,198.8
			c3-19,1.2-41.8-2.6-56c-2-7.7-9.1-16.6-15.8-19.4C309.2,147.6,316.6,182,318.7,198.8L318.7,198.8z M312.4,172.3
			c-6.7-18.2-23.7-56-48.7-65.3C280,124.6,304.1,159.8,312.4,172.3z M337.5,241.4v5.1h-0.8v-5.1h-1.6v-0.6h4.2v0.6L337.5,241.4
			L337.5,241.4z"/>
		<path d="M346.1,243.2c0-0.6-0.2-1.2-0.2-1.4"/>
		<path d="M235.6,186H235v1.4h0.4c0.8,0,1-0.4,1-0.8C236.2,186.2,236,186,235.6,186L235.6,186z M236.4,189.7l-1.2-2v2h-0.8v-4.4h1.2
			c1,0,1.4,0.4,1.4,1c0,0.8-0.4,1.2-1.2,1.2c0,0.2,0.2,0.4,0.4,0.6l1,1.4h-0.8L236.4,189.7L236.4,189.7z M235.6,184.6
			c-1.8,0-3.2,1.4-3.2,3c0,1.8,1.4,3.2,3.2,3.2c1.8,0,3.2-1.4,3.2-3C238.6,186,237.2,184.6,235.6,184.6z M235.6,191.5
			c-2.2,0-4-1.8-4-3.8c0-2.2,1.8-3.8,4-3.8c2.2,0,4,1.6,4,3.8C239.4,189.7,237.6,191.5,235.6,191.5z M346.4,246.5l-0.6-3.4
			c-0.2-0.6-0.2-1.2-0.2-1.4c0,0.2-0.2,0.6-0.2,1l-1.2,3.8h-0.8l-1.2-3.6c-0.2-0.4-0.4-1-0.4-1.4c0,0.4-0.2,1-0.2,1.6l-0.4,3.4h-0.8
			l0.8-5.7h1l1.2,3.8l0.4,1.2c0-0.4,0.2-0.6,0.4-1.2l1.4-3.8h1l1,5.7H346.4L346.4,246.5z"/>
	</g>
</g>
<g id="goco" display="none">
	<path display="inline" d="M267.1,262.8H115.9c-6.9,0-12.5-5.6-12.5-12.4V99.2c0-6.9,5.6-12.5,12.5-12.5h124.3
		c4.6,0,6.4,0.7,9.5,3.9l27.4,27.4c1.3,1.3,2.4,2.6,2.4,5.8v126.5C279.5,257.2,273.9,262.8,267.1,262.8z M115.9,91.5
		c-4.3,0-7.7,3.4-7.7,7.7v151.2c0,4.2,3.4,7.7,7.7,7.7h151.2c4.2,0,7.7-3.4,7.7-7.7V123.8c0-1.4-0.2-1.7-1-2.4L246.4,94
		c-2.1-2.1-2.7-2.5-6.2-2.5L115.9,91.5L115.9,91.5z M234.3,185.2c-17.6,0-31.8,14.2-31.8,31.8s14.2,31.8,31.8,31.8
		S266,234.5,266,217C266,199.5,251.8,185.2,234.3,185.2 M234.3,233.5c-9.1,0-16.4-7.4-16.4-16.4c0-9.1,7.4-16.4,16.4-16.4
		c9.1,0,16.4,7.4,16.4,16.4S243.3,233.5,234.3,233.5 M183.7,223.8c-0.8,0.6-2.1,1.7-2.6,2.5c-2.9,4.4-7.9,7.1-13.7,7.1
		c-9.1,0-16.4-7.4-16.4-16.4c0-9.1,7.4-16.4,16.4-16.4c5.6,0,10.7,2.8,13.7,7.1c0.6,0.8,1.7,2,2.6,2.5c3.9,2.6,10,2.5,15.2,2.1
		c-2.2-15.3-15.5-27.2-31.5-27.2c-17.6,0-31.8,14.2-31.8,31.8s14.2,31.8,31.8,31.8c16,0,29.2-11.8,31.5-27.2
		C193.7,221.2,187.5,221.2,183.7,223.8 M131.5,238.1c0,4.1-3.3,7.3-7.3,7.3s-7.3-3.3-7.3-7.3s3.3-7.3,7.3-7.3
		C128.3,230.7,131.5,234,131.5,238.1"/>
	<path display="inline" d="M285.2,260.3v-6H283v-1.2h5.6v1.2h-2.1v5.9L285.2,260.3L285.2,260.3z M289.6,260.3v-7.1h2.1l1.3,4.8
		l1.3-4.8h2.1v7.1h-1.4v-5.6l-1.4,5.6h-1.4l-1.4-5.6v5.6H289.6z M167.4,287.2v2.2l-3.3,0.6c0.3,0.4,0.6,0.9,0.7,1.4
		c0.2,0.6,0.3,1.2,0.3,1.8c0,1.9-0.6,3.5-2,4.6c-1.4,1.1-3.2,1.7-5.6,1.7c-0.6,0-1.1-0.1-1.7-0.2c-0.9,0.6-1.3,1.2-1.3,1.9
		c0,0.4,0.2,0.8,0.6,1c0.4,0.2,1.1,0.3,2.2,0.3h3.3c2.1,0,3.7,0.5,4.8,1.4c1.1,0.9,1.6,2.1,1.6,3.8c0,2.1-0.9,3.8-2.6,4.9
		c-1.7,1.2-4.3,1.7-7.6,1.7c-2.5,0-4.5-0.5-5.9-1.4c-1.4-0.9-2.1-2.2-2.1-3.9c0-1.2,0.4-2.1,1.1-2.9c0.7-0.8,1.7-1.4,3.1-1.7
		c-0.6-0.2-1-0.6-1.4-1.1c-0.3-0.5-0.6-1-0.6-1.6c0-0.7,0.2-1.3,0.6-1.8c0.4-0.5,1-1,1.7-1.4c-1-0.4-1.7-1.1-2.4-2.1
		c-0.6-1-0.9-2.1-0.9-3.3c0-2.1,0.6-3.7,1.9-4.8c1.3-1.1,3.1-1.7,5.6-1.7c0.6,0,1.1,0,1.7,0.1c0.6,0.1,1,0.2,1.4,0.2L167.4,287.2
		L167.4,287.2z M152.6,308.9c0,0.9,0.4,1.5,1.2,2c0.8,0.5,1.9,0.7,3.3,0.7c2.2,0,3.8-0.3,4.8-1c1-0.6,1.6-1.4,1.6-2.5
		c0-0.8-0.3-1.4-0.9-1.7c-0.6-0.3-1.7-0.6-3.3-0.6h-3c-1.1,0-2.1,0.2-2.7,0.8C152.9,307.3,152.6,308,152.6,308.9L152.6,308.9z
		 M154.3,293.2c0,1.2,0.3,2.1,0.9,2.7c0.6,0.6,1.5,1,2.6,1c2.3,0,3.5-1.3,3.5-3.7c0-1.2-0.3-2.1-0.9-2.9c-0.6-0.6-1.4-1-2.6-1
		c-1.2,0-2.1,0.3-2.6,1C154.6,291,154.3,292,154.3,293.2L154.3,293.2z M186.8,296.6c0,3.1-0.8,5.5-2.4,7.2c-1.6,1.7-3.8,2.6-6.6,2.6
		c-1.7,0-3.3-0.4-4.7-1.2c-1.4-0.8-2.4-1.9-3.1-3.4c-0.7-1.5-1.1-3.3-1.1-5.2c0-3.1,0.8-5.5,2.4-7.1c1.6-1.7,3.8-2.5,6.7-2.5
		c2.7,0,4.9,0.9,6.5,2.6C186,291.2,186.8,293.5,186.8,296.6L186.8,296.6z M173,296.6c0,4.4,1.6,6.5,4.8,6.5c3.2,0,4.8-2.1,4.8-6.5
		c0-4.3-1.6-6.4-4.8-6.4c-1.7,0-2.9,0.6-3.7,1.7C173.4,292.9,173,294.5,173,296.6z M189.9,303.9c0-0.8,0.2-1.4,0.6-1.9
		c0.4-0.5,1-0.6,1.9-0.6c0.8,0,1.4,0.2,1.9,0.7c0.4,0.5,0.6,1.1,0.6,1.9c0,0.8-0.2,1.4-0.6,1.9c-0.5,0.5-1,0.7-1.9,0.7
		c-0.8,0-1.4-0.2-1.9-0.7C190.1,305.4,189.9,304.7,189.9,303.9z M206.8,306.3c-2.9,0-5-0.8-6.5-2.5c-1.5-1.7-2.2-4.1-2.2-7.1
		c0-3.2,0.8-5.6,2.3-7.3c1.6-1.7,3.8-2.5,6.8-2.5c2,0,3.8,0.4,5.4,1.1l-1.2,3.3c-1.7-0.6-3.1-1-4.2-1c-3.3,0-4.9,2.1-4.9,6.5
		c0,2.1,0.4,3.7,1.2,4.8c0.8,1,2,1.6,3.6,1.6c1.7,0,3.5-0.5,5.1-1.4v3.5c-0.7,0.4-1.5,0.7-2.3,0.9C209,306.2,208,306.3,206.8,306.3z
		 M232.4,296.6c0,3.1-0.8,5.5-2.4,7.2c-1.6,1.7-3.8,2.6-6.6,2.6c-1.7,0-3.3-0.4-4.7-1.2c-1.4-0.8-2.4-1.9-3.1-3.4
		c-0.7-1.5-1.1-3.3-1.1-5.2c0-3.1,0.8-5.5,2.4-7.1c1.6-1.7,3.8-2.5,6.7-2.5c2.7,0,4.9,0.9,6.5,2.6
		C231.6,291.2,232.4,293.5,232.4,296.6z M218.7,296.6c0,4.4,1.6,6.5,4.8,6.5c3.2,0,4.8-2.1,4.8-6.5c0-4.3-1.6-6.4-4.8-6.4
		c-1.7,0-2.9,0.6-3.7,1.7C219.1,292.9,218.7,294.5,218.7,296.6z"/>
</g>
<g id="dst" display="none">
	<path display="inline" d="M76.6,303.2v-65.6h28.8c21.2,0,34.3,9.9,34.3,31.4c0,24.7-13.8,34.2-34.9,34.2H76.6L76.6,303.2z
		 M98.1,287.8h4.6c10.1,0,15.5-5.3,15.5-17.7c0-13.7-4.5-17.3-15.9-17.3h-4.2V287.8L98.1,287.8z M201.3,256.5
		c-0.4-2.2-1.5-3.6-3.1-4.5c-1.5-0.8-3.5-1.3-5.6-1.3c-4.7,0-6.8,1.4-6.8,3.8c0,9.9,37.7,3.8,37.7,27.6c0,15.2-12.7,22.6-30.7,22.6
		c-17.3,0-28.6-10.2-29-21.9h20.7c0.4,2.4,1.7,4,3.5,5.2c1.7,1.1,4,1.7,6.1,1.7c5.4,0,8.9-1.7,8.9-4.9c0-9.9-37.7-3.1-37.7-28.2
		c0-14,12-20.9,28.5-20.9c18.3,0,26.5,9.4,28.1,20.8H201.3L201.3,256.5z M249.7,237.6H310v17.2h-19.4v48.4h-21.5v-48.4h-19.4
		L249.7,237.6L249.7,237.6z M329,99.6c0-2.7,2.1-4.5,4.6-4.5s4.6,2,4.6,4.5c0,2.7-2.1,4.6-4.6,4.6C331.1,104.1,329,102.3,329,99.6z
		 M333.6,103.4c2.1,0,3.6-1.7,3.6-3.8s-1.7-3.8-3.6-3.8c-2.1,0-3.6,1.7-3.6,3.8S331.5,103.4,333.6,103.4z M332.6,102.3h-0.8v-5.2h2
		c1.3,0,1.8,0.4,1.8,1.5c0,1-0.6,1.4-1.4,1.4l1.5,2.2h-0.8l-1.4-2.2h-0.8L332.6,102.3L332.6,102.3z M333.6,99.3c0.7,0,1.3,0,1.3-0.8
		c0-0.7-0.6-0.7-1.1-0.7h-1.1v1.7h1L333.6,99.3z M61.8,95.1h3.4v208h-3.4V95.1z M149.5,95.1h3.4v208h-3.4V95.1z M234.3,95.1h3.4v208
		h-3.4V95.1z M322,95.1h3.4v208H322V95.1z"/>
</g>
<g id="kansascitydev" display="none">
	<path display="inline" d="M19.8,211.6l12.5-11c0.8-0.8,3.1-2.3,3.1-3.9c0-1.6-1.6-2.3-3.1-2.3v-2.3h18.8v1.6
		c-6.3,0-8.6,1.6-13.3,5.5l-10.2,9.4L41,225c6.3,7.8,7.8,7.8,11.7,7.8v1.6H32.4v-1.6c0.8,0,3.1,0,3.1-1.6c0-0.8-0.8-2.3-1.6-3.1
		L19.8,211.6L19.8,211.6z M19.8,227.3c0,5.5,2.3,6.3,6.3,6.3v1.6H4.9v-1.6c3.9,0,6.3-0.8,6.3-6.3v-45.4c0-6.3-1.6-6.3-3.1-6.3
		c-0.8,0-2.3,0-3.1,0.8l-0.8-1.6l13.3-5.5h2.3L19.8,227.3L19.8,227.3z M77,226.5c-2.3,1.6-6.3,4.7-9.4,4.7c-4.7,0-7-3.9-7-7.8
		c0-7,9.4-11,15.7-13.3C77,210.1,77,226.5,77,226.5z M84.8,203c0-3.1,0-11.7-14.1-11.7c-13.3,0-15.7,7.8-15.7,11
		c0,3.1,1.6,4.7,3.9,4.7c3.1,0,3.9-2.3,3.9-7c0-3.9,3.1-5.5,6.3-5.5c7,0,7.8,6.3,7.8,13.3c-7.8,3.9-23.5,7-23.5,18
		c0,6.3,3.9,11,10.2,11c6.3,0,9.4-3.9,13.3-7c0,3.9,0.8,7,4.7,7c3.9,0,7.8-3.9,10.2-7v-3.1c-1.6,0.8-3.1,3.9-4.7,3.9
		c-2.3,0-2.3-3.1-2.3-7.8V203z M106,199.9c5.5-6.3,9.4-8.6,14.1-8.6c7.8,0,11,7,11,14.9v21.9c0,5.5,2.3,6.3,6.3,6.3v1.6h-21.1v-1.6
		c3.9,0,6.3-0.8,6.3-6.3v-19.6c0-9.4-3.9-10.2-7-10.2c-4.7,0-7.8,3.1-11,6.3v24.3c0,5.5,2.3,6.3,6.3,6.3v1.6H89.5v-1.6
		c4.7,0,7-0.8,7-6.3v-23.5c0-6.3-1.6-6.3-3.1-6.3c-0.8,0-2.3,0-3.1,0.8l-0.8-1.6l13.3-5.5h2.3L106,199.9L106,199.9z M165.5,205.4
		H164c-1.6-6.3-3.9-11.7-11.7-11.7c-3.1,0-7,1.6-7,6.3c0,10.2,23.5,8.6,23.5,23.5c0,7.8-7.8,12.5-14.9,12.5c-3.1,0-6.3-0.8-8.6-1.6
		h-2.3c-0.8,0-1.6,0-1.6,0.8h-1.6v-15.7h1.6c0.8,7,6.3,13.3,13.3,13.3c3.9,0,7.8-2.3,7.8-6.3c0-11-22.7-9.4-22.7-23.5
		c0-7.8,5.5-12.5,13.3-12.5c1.6,0,3.1,0,5.5,0.8l3.9,0.8c0,0,1.6-0.8,1.6-1.6h1.6L165.5,205.4L165.5,205.4z M196.1,226.5
		c-2.3,1.6-6.3,4.7-9.4,4.7c-3.9,0-7-3.9-7-7.8c0-7,9.4-11,15.7-13.3C196.1,210.1,196.1,226.5,196.1,226.5z M203.9,203
		c0-3.1,0-11.7-14.1-11.7c-13.3,0-15.7,7.8-15.7,11c0,3.1,1.6,4.7,3.9,4.7c3.1,0,3.9-2.3,3.9-7c0-3.9,3.1-5.5,6.3-5.5
		c7.8,0,7.8,6.3,7.8,13.3c-7.8,3.9-23.5,7-23.5,18c0,6.3,3.9,11,10.2,11s9.4-3.9,13.3-7c0,3.9,0.8,7,5.5,7s7.8-3.9,10.2-7v-3.1
		l-4.7,3.9c-2.3,0-2.3-3.1-2.3-7.8C203.9,222.6,203.9,202.2,203.9,203z M239.1,205.4h-1.6c-1.6-6.3-3.9-11.7-11.7-11.7
		c-3.1,0-7,1.6-7,6.3c0,10.2,23.5,8.6,23.5,23.5c0,7.8-7,12.5-14.9,12.5c-2.3,0-6.3-0.8-8.6-1.6h-2.3c-0.8,0-1.6,0-1.6,0.8h-1.6
		v-15.7h1.6c0.8,7,6.3,13.3,13.3,13.3c3.9,0,7-2.3,7-6.3c0-11-21.9-9.4-21.9-23.5c0-7.8,5.5-12.5,13.3-12.5c1.6,0,3.1,0,5.5,0.8
		l3.9,0.8c0.8,0,1.6-0.8,1.6-1.6h1.6L239.1,205.4L239.1,205.4z M295.5,218.7c-1.6,8.6-7.8,17.2-18,17.2c-11,0-18-9.4-18-22.7
		c0-14.1,9.4-22.7,20.4-22.7c5.5,0,14.1,3.9,14.1,10.2c0,2.3-1.6,3.9-3.9,3.9c-3.9,0-4.7-1.6-5.5-5.5c0-3.9-2.3-5.5-6.3-5.5
		c-8.6,0-11.7,8.6-11.7,15.7c0,7.8,3.9,19.6,14.1,19.6c7,0,11-4.7,13.3-11C294,218.7,295.5,218.7,295.5,218.7L295.5,218.7z
		 M313.6,227.3c0,5.5,2.3,6.3,6.3,6.3v1.6h-21.1v-1.6c4.7,0,6.3-0.8,6.3-6.3v-23.5c0-6.3-1.6-6.3-3.1-6.3c-0.8,0-2.3,0-3.1,0.8
		l-0.8-1.6l13.3-5.5h2.3L313.6,227.3L313.6,227.3z M353.5,202.2c-1.6-3.9-3.9-7.8-7.8-7.8v-2.3h19.6v1.6c-3.1,0-5.5,0-5.5,3.9
		c0,1.6,1.6,3.9,1.6,6.3l10.2,20.4l9.4-22.7c0.8-1.6,1.6-3.1,1.6-4.7c0-2.3-1.6-2.3-3.9-2.3v-1.6h14.1v1.6c-3.1,0-4.7,2.3-5.5,4.7
		l-18,44.6c-3.9,9.4-11,11.7-14.1,11.7c-3.1,0-6.3-1.6-6.3-5.5c0-3.1,2.3-3.9,4.7-3.9c3.1,0,4.7,1.6,6.3,1.6c3.9,0,6.3-5.5,7-7.8
		l2.3-6.3C368.4,233.6,353.5,202.2,353.5,202.2L353.5,202.2z M64.5,250l1.6,7.8h-3.1C62.9,257.1,64.5,250,64.5,250L64.5,250z
		 M58.2,263.3h3.1l0.8-3.9h4.7l0.8,3.9h3.9l-4.7-16.4h-3.9L58.2,263.3z M75.4,249.2H77c1.6,0,2.3,0.8,2.3,2.3c0,1.6-0.8,2.3-2.3,2.3
		h-1.6V249.2L75.4,249.2z M72.3,263.3h3.1v-7H77c1.6,0,1.6,0.8,1.6,2.3v3.1c0,0.8,0,1.6,0.8,1.6h3.9c-0.8,0-0.8-1.6-0.8-3.1
		c0-3.9-0.8-4.7-2.3-5.5c1.6,0,2.3-1.6,2.3-3.9c0-3.1-1.6-3.9-4.7-3.9h-6.3L72.3,263.3L72.3,263.3z M95,246.9v3.1h-6.3v3.9h5.5v2.3
		h-5.5v4.7H95v2.3h-9.4v-17.2L95,246.9L95,246.9z M102.1,250l1.6,7.8h-3.1L102.1,250L102.1,250z M95.8,263.3h3.1l0.8-3.9h4.7
		l0.8,3.9h3.1l-3.9-16.4h-4.7L95.8,263.3z M118.5,249.2h1.6c2.3,0,3.1,1.6,3.1,6.3s0,6.3-3.1,6.3h-1.6V249.2L118.5,249.2z
		 M115.4,263.3h5.5c4.7,0,6.3-2.3,6.3-8.6c0-4.7-0.8-7.8-5.5-7.8h-5.5C115.4,246.9,115.4,263.3,115.4,263.3L115.4,263.3z
		 M138.1,246.9v3.1h-6.3v3.9h5.5v2.3h-5.5v4.7h6.3v2.3h-9.4v-17.2L138.1,246.9L138.1,246.9z M142.8,246.9l2.3,12.5l2.3-12.5h3.9
		l-3.9,17.2h-4.7l-3.9-17.2L142.8,246.9L142.8,246.9z M161.6,246.9v3.1h-6.3v3.9h5.5v2.3h-5.5v4.7h6.3v2.3h-9.4v-17.2L161.6,246.9
		L161.6,246.9z M164,263.3v-16.4h3.1V261h6.3v2.3H164L164,263.3z M177.3,254.7c0-4.7,0-6.3,2.3-6.3s2.3,1.6,2.3,6.3
		s-0.8,6.3-2.3,6.3C178,261,177.3,259.4,177.3,254.7z M174.1,254.7c0,5.5,0.8,8.6,5.5,8.6s6.3-3.9,6.3-8.6s-0.8-8.6-6.3-8.6
		C174.9,246.1,174.1,250,174.1,254.7z M191.4,249.2h1.6c1.6,0,2.3,0.8,2.3,2.3c0,1.6-0.8,2.3-2.3,2.3h-2.3L191.4,249.2L191.4,249.2z
		 M187.4,263.3h3.1v-7h1.6c3.1,0,5.5-1.6,5.5-4.7c0-2.3-1.6-4.7-4.7-4.7h-6.3L187.4,263.3L187.4,263.3z M200,246.9h5.5l2.3,11.7
		l2.3-11.7h4.7v17.2h-3.1v-13.3l-3.1,13.3h-3.1l-3.1-13.3v13.3h-3.1C200,264.1,200,246.9,200,246.9L200,246.9z M226.6,246.9v3.1
		h-6.3v3.9h5.5v2.3h-5.5v4.7h6.3v2.3h-9.4v-17.2L226.6,246.9L226.6,246.9z M232.9,246.9l3.9,11.7v-11.7h3.1v17.2H236l-3.9-11.7v11.7
		H229v-17.2L232.9,246.9L232.9,246.9z M252.5,246.9v3.1h-3.9v14.1h-3.1V250h-3.9v-3.1H252.5z M266.6,252.4c0-2.3-0.8-3.9-1.6-3.9
		c-1.6,0-2.3,1.6-2.3,6.3c0,5.5,0.8,6.3,2.3,6.3c1.6,0,2.3-0.8,2.3-3.9h3.1c0,3.9-0.8,7-5.5,7c-5.5,0-6.3-3.9-6.3-8.6
		s0.8-8.6,6.3-8.6c4.7,0,5.5,3.9,5.5,6.3C269.7,252.4,266.6,252.4,266.6,252.4L266.6,252.4z M275.2,254.7c0-4.7,0.8-6.3,2.3-6.3
		c1.6,0,2.3,1.6,2.3,6.3s0,6.3-2.3,6.3S275.2,259.4,275.2,254.7z M271.3,254.7c0,5.5,0.8,8.6,6.3,8.6c5.5,0,5.5-3.9,5.5-8.6
		s-0.8-8.6-5.5-8.6C272,246.1,271.3,250,271.3,254.7z M287.7,246.9v11.7c0,1.6,0,3.1,1.6,3.1c1.6,0,1.6-1.6,1.6-3.1v-11.7h3.1v11.7
		c0,3.9-2.3,5.5-5.5,5.5c-2.3,0-5.5-0.8-5.5-5.5v-11.7H287.7z M301.8,246.9l3.9,11.7v-11.7h3.1v17.2h-3.9l-3.9-11.7v11.7h-3.1v-17.2
		H301.8z M318.3,252.4c0-2.3-0.8-3.9-1.6-3.9c-1.6,0-2.3,1.6-2.3,6.3c0,5.5,0.8,6.3,2.3,6.3c1.6,0,2.3-0.8,2.3-3.9h3.1
		c0,3.9-0.8,7-5.5,7c-5.5,0-6.3-3.9-6.3-8.6s0.8-8.6,6.3-8.6c4.7,0,5.5,3.9,5.5,6.3C321.4,252.4,318.3,252.4,318.3,252.4
		L318.3,252.4z M323.7,263.3v-16.4h3.1v17.2h-3.1V263.3z M330,263.3v-16.4h3.1V261h6.3v2.3H330L330,263.3z M344.9,192.1v1.6h-10.2
		v28.2c0,3.9,0,7.8,4.7,7.8c2.3,0,3.9-1.6,4.7-3.9h1.6c-1.6,4.7-5.5,9.4-11,9.4c-3.1,0-8.6-1.6-8.6-10.2v-31.3h-6.3v-3.1
		c6.3-2.3,11.7-8.6,13.3-12.5h1.6v14.1L344.9,192.1L344.9,192.1z M305.7,135.7c-14.1,0-25.8,11.7-25.8,26.6s11.7,26.6,26.6,26.6
		c14.1,0,25.8-11.7,25.8-26.6S320.6,135.7,305.7,135.7z M301.8,176.4l-5.5-11.7l-1.6,3.1v8.6h-5.5v-29h5.5v11.7l7-11.7h6.3l-7,12.5
		l7.8,16.4H301.8L301.8,176.4z M316.7,177.2c-7.8,0-9.4-6.3-9.4-14.9s0.8-14.9,9.4-14.9c7.8,0,7.8,6.3,7.8,10.2H319
		c0-3.9-0.8-6.3-3.1-6.3s-3.1,3.1-3.1,11c0,8.6,1.6,10.2,3.9,10.2c1.6,0,3.1-0.8,3.1-7h5.5C325.3,171.7,323.7,177.2,316.7,177.2z"/>
</g>
<g id="kcnext" display="none">
	<path display="inline" d="M98.1,156.7h7.6v10.7c3.1-4.1,6.4-7.2,10.2-9.2c3.7-2,7.8-3.1,12.1-2.9c4.5,0,8.4,1.2,11.9,3.3
		c3.5,2.3,6.1,5.3,7.6,9.2c1.6,3.9,2.5,9.8,2.5,18v30.7h-7.6V188c0-6.8-0.2-11.5-0.8-13.7c-1-3.9-2.5-6.8-5.1-9
		c-2.5-2-5.9-2.9-9.8-2.9c-4.7,0-8.8,1.6-12.5,4.5c-3.7,3.1-6.1,6.8-7.2,11.3c-0.8,2.9-1.2,8.4-1.2,16.2v21.9h-7.6L98.1,156.7
		L98.1,156.7z M278.9,135.7h7.6v22.1h12.1v6.6h-12.1v52.9h-7.6v-52.9h-10.5v-6.6h10.5V135.7z M207.4,196.6l6.4,3.3
		c-2.1,4.1-4.5,7.6-7.4,10.2c-2.7,2.5-5.9,4.5-9.4,5.9c-3.5,1.4-7.4,2-11.7,2c-9.8,0-17.4-3.1-22.8-9.6c-5.5-6.4-8.2-13.7-8.2-21.7
		c0-7.6,2.3-14.3,7-20.1c5.9-7.4,13.7-11.3,23.6-11.3c10.2,0,18.4,3.9,24.4,11.5c4.3,5.5,6.4,12.3,6.6,20.3h-53.5
		c0.2,6.8,2.3,12.5,6.6,17c4.3,4.5,9.6,6.6,15.8,6.6c3.1,0,6.1-0.6,8.8-1.6c2.9-1,5.3-2.5,7.4-4.1
		C202.9,203.4,205.1,200.5,207.4,196.6L207.4,196.6z M207.4,180.6c-1-4.1-2.5-7.4-4.5-9.8c-2-2.5-4.5-4.5-7.8-5.9
		c-3.1-1.6-6.6-2.3-10.2-2.3c-5.9,0-10.9,2-15,5.7c-3.1,2.7-5.5,6.8-7,12.3H207.4L207.4,180.6z M241.8,176.1l2.3,3.1l2.3,3.1
		l18.2-25h-9.2L241.8,176.1L241.8,176.1z M234.9,185.5l2.3,3.1l2.1-3.1l-2.3-3.1L234.9,185.5z M246.4,188.6l-2.3,3.3L242,195
		l15.8,21.9h9.4L246.4,188.6L246.4,188.6z M214.4,157.3h9.2l15.8,21.9l4.7,6.4l-4.7,6.4l-18,25h-9.2l22.7-31.4L214.4,157.3
		L214.4,157.3z M362,157.5h9.2l15.8,21.9l4.7,6.2l-4.7,6.4l-18,25h-9.2l22.7-31.4L362,157.5L362,157.5z M49.2,142.5
		c-24.4,0-44.1,19.7-44.1,44.1s19.9,44.1,44.3,44.1s44.1-19.7,44.1-44.1S73.6,142.5,49.2,142.5z M42.8,210.8l-9.2-19.9l-3.3,5.5
		v14.4h-9v-48.4h9v19.5h0.2l11.3-19.5h9.8l-12.1,20.7l13.5,27.7L42.8,210.8L42.8,210.8z M66.8,211.8c-13.5,0-15.2-10.3-15.2-25.2
		c0-14.6,1.8-25.2,15.2-25.2c12.9,0,13.9,10.2,13.9,17.4h-9c0-7-1.4-10.2-5.5-10.2c-4.7,0-5.7,4.9-5.7,18.7c0,14.6,2,17.4,5.9,17.4
		c3.3,0,5.7-1.8,5.7-12.3h9C81.1,202.8,78.7,211.8,66.8,211.8L66.8,211.8z"/>
	<g display="inline">
		<path id="a" d="M353.6,185.6l-22.8,31.6h9.2l18.2-25.2l4.7-6.4l-4.7-6.4l-15.8-22.1h-9.4L353.6,185.6z"/>
	</g>
	<g display="inline">
		<defs>
			<polygon id="SVGID_1_" points="353.6,185.6 330.8,217.3 340,217.3 358.1,192.1 362.8,185.6 358.1,179.2 342.3,157.1 332.9,157.1 
							"/>
		</defs>
		<use xlink:href="#SVGID_1_"  overflow="visible"/>
		<clipPath id="SVGID_2_">
			<use xlink:href="#SVGID_1_"  overflow="visible"/>
		</clipPath>
		<path clip-path="url(#SVGID_2_)" d="M330.8,157.1h32v60.1h-32V157.1z"/>
	</g>
	<g display="inline">
		<path id="c" d="M324,185.6l-22.8,31.6h9.2l18.4-25.2l4.7-6.4l-4.7-6.4l-16-22.1h-9.4L324,185.6z"/>
	</g>
	<g display="inline">
		<defs>
			<polygon id="SVGID_3_" points="324,185.6 301.1,217.3 310.3,217.3 328.7,192.1 333.3,185.6 328.7,179.2 312.6,157.1 303.3,157.1 
							"/>
		</defs>
		<use xlink:href="#SVGID_3_"  overflow="visible"/>
		<clipPath id="SVGID_4_">
			<use xlink:href="#SVGID_3_"  overflow="visible"/>
		</clipPath>
		<path clip-path="url(#SVGID_4_)" d="M301.1,157.1h32v60.1h-32V157.1z"/>
	</g>
	<path display="inline" d="M101.6,230.9h-3.9v-2.5h10.7v2.5h-3.9v10.2h-2.7v-10.2H101.6z M110.5,228.4h2.7v5.1h5.3v-5.1h2.7v12.9
		h-2.7v-5.1h-5.3v5.1h-2.7V228.4z M124.4,228.4h9.8v2.5h-6.8v2.5h6.1v2.5h-6.1v2.7h7v2.5h-9.8v-12.9L124.4,228.4z M145.3,230.9h-3.9
		v-2.5h10.7v2.5h-3.9v10.2h-2.7v-10.2H145.3z M154.3,228.4h9.8v2.5h-6.8v2.5h6.1v2.5h-6.1v2.7h7v2.5h-9.8v-12.9L154.3,228.4z
		 M166,234.9c0-3.7,2.7-6.6,6.6-6.6c2.3,0,3.9,0.8,5.1,2l-1.8,2.1c-1-1-2-1.4-3.3-1.4c-2.1,0-3.7,1.8-3.7,3.9c0,2.1,1.6,4.1,3.7,4.1
		c1.6,0,2.3-0.6,3.3-1.6l1.8,1.8c-1.4,1.4-2.7,2.3-5.3,2.3C168.7,241.5,166,238.6,166,234.9L166,234.9z M180.1,228.4h2.7v5.1h5.3
		v-5.1h2.7v12.9h-2.7v-5.1h-5.3v5.1h-2.7V228.4z M194.1,228.4h2.5l6.1,8v-8h2.7v12.9h-2.3l-6.2-8.2v8.2h-2.7L194.1,228.4
		L194.1,228.4z M208,234.9c0-3.7,2.9-6.6,6.8-6.6c3.9,0,6.8,2.9,6.8,6.6c0,3.7-2.9,6.6-6.8,6.6C210.9,241.5,208,238.6,208,234.9z
		 M218.7,234.9c0-2.1-1.6-4.1-3.9-4.1c-2.3,0-3.9,1.8-3.9,3.9s1.6,4.1,3.9,4.1C217.2,239,218.7,237,218.7,234.9z M224.2,228.4h2.7
		v10.3h6.4v2.5h-9.2L224.2,228.4L224.2,228.4z M234.1,234.9c0-3.7,2.9-6.6,6.8-6.6s6.8,2.9,6.8,6.6c0,3.7-2.9,6.6-6.8,6.6
		S234.1,238.6,234.1,234.9z M244.9,234.9c0-2.1-1.6-4.1-3.9-4.1c-2.3,0-3.9,1.8-3.9,3.9s1.6,4.1,3.9,4.1
		C243.3,239,244.9,237,244.9,234.9z M249.8,234.9c0-3.7,2.9-6.6,6.8-6.6c2.3,0,3.7,0.6,5.1,1.8l-1.8,2.1c-1-0.8-2-1.4-3.3-1.4
		c-2.1,0-3.7,1.8-3.7,3.9c0,2.3,1.6,4.1,3.9,4.1c1,0,2-0.2,2.7-0.8v-1.8h-2.9v-2.5h5.7v5.7c-1.4,1.2-3.1,2-5.5,2
		C252.7,241.5,249.8,238.8,249.8,234.9L249.8,234.9z M267.9,236.2l-4.9-7.8h3.3l3.1,5.1l3.1-5.1h3.1l-4.9,7.8v5.1h-2.7v-5.1H267.9z
		 M282.4,234.9c0-3.7,2.7-6.6,6.6-6.6c2.3,0,3.9,0.8,5.1,2l-1.8,2.1c-1-1-2-1.4-3.3-1.4c-2.1,0-3.7,1.8-3.7,3.9
		c0,2.1,1.6,4.1,3.7,4.1c1.6,0,2.3-0.6,3.3-1.6l1.8,1.8c-1.4,1.4-2.7,2.3-5.3,2.3C285.1,241.5,282.4,238.6,282.4,234.9L282.4,234.9z
		 M295.7,234.9c0-3.7,2.9-6.6,6.8-6.6s6.8,2.9,6.8,6.6c0,3.7-2.9,6.6-6.8,6.6C298.4,241.5,295.7,238.6,295.7,234.9z M306.2,234.9
		c0-2.1-1.6-4.1-3.9-4.1s-3.9,1.8-3.9,3.9s1.6,4.1,3.9,4.1C304.6,239,306.2,237,306.2,234.9z M311.5,235.8v-7.4h2.9v7.2
		c0,2.1,1,3.1,2.7,3.1c1.8,0,2.7-1,2.7-3.1v-7.4h2.7v7.2c0,3.9-2.1,5.9-5.7,5.9C313.6,241.5,311.5,239.5,311.5,235.8L311.5,235.8z
		 M325.7,228.4h2.5l6.1,8v-8h2.7v12.9h-2.3l-6.2-8.2v8.2h-2.7L325.7,228.4L325.7,228.4z M339.6,234.9c0-3.7,2.7-6.6,6.6-6.6
		c2.3,0,3.9,0.8,5.1,2l-1.8,2.1c-1-1-2-1.4-3.3-1.4c-2.1,0-3.7,1.8-3.7,3.9c0,2.1,1.6,4.1,3.7,4.1c1.6,0,2.3-0.6,3.3-1.6l1.8,1.8
		c-1.4,1.4-2.7,2.3-5.3,2.3C342.3,241.5,339.6,238.6,339.6,234.9L339.6,234.9z M353.8,228.4h2.9v12.9h-2.9V228.4z M359.9,228.4h2.7
		v10.3h6.4v2.5h-9.2V228.4L359.9,228.4z M97.7,257.1c0-3.9,3.1-7,7.2-7c4.1,0,7.2,3.1,7.2,7c0,3.9-3.1,7-7.2,7
		C100.6,264.1,97.7,261,97.7,257.1z M108.8,257.1c0-2.3-1.8-4.3-4.1-4.3c-2.3,0-4.1,2-4.1,4.3c0,2.3,1.8,4.3,4.1,4.3
		C107.2,261.4,108.8,259.5,108.8,257.1z M114.6,250.3H125v2.7h-7.2v2.9h6.4v2.7h-6.4v5.3h-2.9v-13.7H114.6z M132.4,257.1
		c0-3.9,2.9-7,7-7c2.3,0,3.9,0.6,5.3,2l-2,2.3c-1-0.8-2-1.4-3.5-1.4c-2.1,0-3.9,2-3.9,4.3c0,2.5,1.8,4.3,4.1,4.3
		c1.2,0,2-0.2,2.7-0.8v-2h-2.9v-2.5h5.9v5.9c-1.4,1.2-3.3,2.1-5.9,2.1C135.3,264.1,132.4,261.2,132.4,257.1L132.4,257.1z
		 M148.2,250.3h6.2c1.8,0,3.1,0.4,3.9,1.4c0.8,0.8,1.2,1.8,1.2,3.1c0,2.1-1.2,3.5-2.9,4.1l3.3,4.9h-3.5l-2.9-4.3h-2.3v4.3h-2.9
		L148.2,250.3L148.2,250.3z M154.3,256.9c1.4,0,2.3-0.8,2.3-2c0-1.4-1-2-2.3-2h-2.9v3.9H154.3z M162.3,250.3h10.2v2.7h-7.2v2.7h6.4
		v2.7h-6.4v2.9h7.4v2.7h-10.3V250.3L162.3,250.3z M179.9,250.3h2.7l5.9,13.7h-3.1l-1.2-3.1h-5.7l-1.2,3.1h-3.1L179.9,250.3
		L179.9,250.3z M183,258.3l-1.8-4.3l-1.8,4.3H183z M191.8,253h-4.1v-2.7h11.1v2.7h-4.1v10.7h-2.9V253z M201.1,250.3h10.2v2.7h-7.2
		v2.7h6.4v2.7h-6.4v2.9h7.4v2.7h-10.3V250.3L201.1,250.3z M214,250.3h6.2c1.8,0,3.1,0.4,3.9,1.4c0.8,0.8,1.2,1.8,1.2,3.1
		c0,2.1-1.2,3.5-2.9,4.1l3.3,4.9h-3.5l-2.9-4.3H217v4.3H214L214,250.3L214,250.3z M220.1,256.9c1.4,0,2.3-0.8,2.3-2c0-1.4-1-2-2.3-2
		h-2.9v3.9H220.1z M234,250.3h2.9v5.9l5.5-5.9h3.5l-5.5,5.7l5.9,7.8h-3.5l-4.1-5.7l-1.6,1.6v4.1h-2.9v-13.5H234z M252.3,250.3h2.7
		l5.9,13.7h-3.1l-1.2-3.1h-5.7l-1.2,3.1h-2.9L252.3,250.3L252.3,250.3z M255.4,258.3l-1.8-4.3l-1.8,4.3H255.4z M262.9,250.3h2.7
		l6.2,8.4v-8.4h2.9v13.5h-2.5l-6.6-8.6v8.6h-2.7V250.3L262.9,250.3z M277.1,261.8l1.8-2.1c1.2,1,2.5,1.6,4.1,1.6c1.2,0,2-0.4,2-1.4
		c0-0.8-0.4-1.2-2.7-1.8c-2.7-0.8-4.5-1.4-4.5-4.1c0-2.5,2-4.1,4.7-4.1c2,0,3.7,0.6,5.1,1.8l-1.6,2.1c-1.2-0.8-2.3-1.4-3.5-1.4
		c-1.2,0-1.8,0.6-1.8,1.2c0,1,0.6,1.2,2.9,1.8c2.7,0.8,4.3,1.8,4.3,4.1c0,2.7-2,4.1-4.9,4.1C280.8,264.1,278.9,263.4,277.1,261.8
		L277.1,261.8z M294.9,250.3h2.7l5.9,13.7h-3.1l-1.2-3.1h-5.7l-1.2,3.1h-3.1L294.9,250.3L294.9,250.3z M298,258.3l-1.8-4.3l-1.8,4.3
		H298L298,258.3z M304.2,261.8l1.8-2.1c1.2,1,2.5,1.6,4.1,1.6c1.2,0,2-0.4,2-1.4c0-0.8-0.4-1.2-2.7-1.8c-2.7-0.8-4.5-1.4-4.5-4.1
		c0-2.5,2-4.1,4.7-4.1c2,0,3.7,0.6,5.1,1.8l-1.6,2.1c-1.2-0.8-2.3-1.4-3.5-1.4c-1.2,0-1.8,0.6-1.8,1.2c0,1,0.6,1.2,2.9,1.8
		c2.7,0.8,4.3,1.8,4.3,4.1c0,2.7-2,4.1-4.9,4.1C308,264.1,306,263.4,304.2,261.8L304.2,261.8z M322.8,257.1c0-3.9,2.9-7,7-7
		c2.5,0,4.1,0.8,5.3,2.1l-2,2.1c-1-1-2.1-1.6-3.5-1.6c-2.3,0-3.9,2-3.9,4.3c0,2.3,1.6,4.3,3.9,4.3c1.6,0,2.5-0.6,3.5-1.6l2,2
		c-1.4,1.6-2.9,2.3-5.5,2.3C325.7,264.1,322.8,261,322.8,257.1L322.8,257.1z M337.8,250.3h2.9v13.5h-2.9V250.3L337.8,250.3z
		 M347.2,253h-4.1v-2.7h11.1v2.7h-4.1v10.7h-2.9L347.2,253L347.2,253z M360.5,258.5l-5.3-8.2h3.5l3.3,5.5l3.3-5.5h3.3l-5.3,8.2v5.5
		h-2.9V258.5z"/>
</g>
<g id="downtownkc" display="none">
	<path display="inline" d="M146.8,268.5v10c-1.3,6.3-10.7,4.7-10.7,4.8v8h44.6l0.1-7.2C180.8,284.1,161.7,280.2,146.8,268.5
		L146.8,268.5z M288.1,283.8c0,0-3.7,1.4-8.1-3.1l-79.7-96.1c0,0,36.5-36.8,37.7-38.2c-14.7-5.1-22.6-4.1-23.3-3.4l-44.5,44.5v-63.3
		c0-8.8,10.6-7.8,10.6-7.8v-8h-44.6v8c0,0,10.6-1.1,10.7,7.7v107.6c0.1,0.2,4.2,13.4,23.4,23.1v-40.1l13.8-13.9
		c0,0,66.1,78.8,67.1,80c0.8,0.9,1.8,2.7-0.1,2.7h-9.3v8h46.3V283.8L288.1,283.8z M264.7,116.1v-7.6h-44v7.9h9.3
		c3.4,0,3.9,2.9,1.5,4.8c0,0,13.4,1.8,21.9,6.2L264.7,116.1L264.7,116.1z M235.6,268.5c-65.6,14.7-104.2-33.9-101.4-64.6
		c0.7-7.7,1.8-18.8,9.3-30.2V145c-14.2,11.5-25,27.6-28.1,47.6c-0.9,2.7-2.1,6.9-5.3,10.1c0,0,4.4,4.7,5.2,10.8
		c7,39.8,44.5,68.1,91.2,69.5c12.5,0.4,25.9-1.2,37.2-4.8L235.6,268.5L235.6,268.5z M270.6,264l-6.6-8.5c0,0,10.8-6.6,18.6-19.4h5.6
		v20.2C288.1,256.3,281.1,254.8,270.6,264z M264.7,120.7l-8.1,8c0,0,6.8,4.4,8,5.8c0.9,0.9,0.8,3.5-3.1,0.7c0,0-34.6-23-87.6-6.6
		v19.1c0,0,52.6-28,99,15.8l17-17.2L264.7,120.7z"/>
</g>
<g id="mc" display="none">
	<path display="inline" d="M372.8,222.4c7.7,0,13.2-5.2,13.2-12.9c0-3.7-1.2-7.1-3.1-9.5c-2.1-2.8-5.2-4-8.6-4
		c-4.6,0-8.9,3.7-13.2,11l-0.3,0.6l-0.3-0.6c-1.2-3.1-2.1-5.8-2.8-7.4c-0.3-1.2-0.6-1.5-0.6-1.8c-0.3-0.6-0.9-1.2-1.8-1.2
		c-0.6,0-1.2,0.3-1.8,0.6c-0.6,0.3-0.9,0.6-0.9,1.2c-4.3,13.2-7.7,19.6-10.7,19.6l-0.9-0.3c-0.6-0.9-0.6-3.1-0.3-5.8
		c0.3-2.1,0.3-4.6,0.3-7.1c-0.3-4.9-2.8-7.7-7.1-7.7c-5.5,0-8.9,5.8-10.4,9.2l-0.6,0.9l-0.3-1.2c-0.3-4.3-1.8-9.2-6.4-9.5
		c-5.2,0-9.2,6.1-11.7,11.4l-0.6,1.2v-1.5c0.3-7.1,0.6-11,0.6-12c0.3-1.2,0-1.8-0.3-2.1c-0.3-0.3-0.9-0.6-2.1-0.6
		c-1.8,0.3-2.5,1.2-3.7,4.6c-2.1,5.5-7.7,18.7-12,18.7c-0.9,0-1.5-0.3-2.1-0.9c-1.8-2.1-1.2-7.7,0-15.3v-0.6
		c0.6-3.7-0.3-4.6-2.1-4.9h-0.6c-1.5,0-2.1,1.5-3.7,5.8c-2.8,7.4-6.1,15.3-9.8,15.3h-0.3c-2.1-0.3-2.1-3.7-2.1-7.4
		c0-2.1,0-4.6-0.3-6.8c-0.6-4-2.8-6.4-6.1-6.4c-6.1,0-10.4,8-12.3,12.9l-0.3,1.2L246,208c-0.3-2.1-0.6-5.2-0.6-9.2v-0.3
		c11.7-14.7,16.9-25.5,17.2-34.7c0-5.8-2.8-9.5-7.1-9.5c-3.4,0-11.4,2.8-13.8,28.2c-0.6,4.6-0.6,9.5-0.6,14.4v0.3
		c-5.5,7.7-16.9,21.2-27.9,21.2c-10.1,0-18.1-8.3-18.1-22.7c0-19.3,13.8-31.3,23.9-31.3c2.1,0,4,0.6,5.5,1.8s2.1,2.8,2.1,4.9
		c0,2.8-0.9,4-1.8,5.5l-0.6,1.2c-0.3,0.3-0.3,0.9-0.3,1.2c0.3,0.3,0.9,0.6,1.8,0.6c2.5,0,6.1-3.7,6.1-8.9c0-5.5-4.6-11.4-13.2-11.4
		c-12.9,0-29.8,14.1-29.8,36.5c0,16,10.1,27.3,23.6,27.3c9.8,0,19-7.1,27.9-18.4l0.6-0.6v0.9c0.3,4.3,0.6,7.4,0.6,9.8
		c0.3,1.5,0.3,2.8,0.3,3.4c0,1.2,0.3,2.1,0.6,2.8c0.6,0.6,1.2,0.9,2.5,0.9c1.8,0,2.1-1.2,3.1-4.6l0.3-0.9c0.9-4,4.3-16.6,9.5-16.6
		c0.9,0,1.5,0.3,1.8,0.6c1.2,1.2,0.9,3.7,0.9,6.4c0,1.8-0.3,3.7,0,5.5c0.6,4.9,2.8,7.4,6.4,7.4s8-4.3,10.4-8.3l0.3-0.6l0.3,0.6
		c0.3,2.1,2.1,9.2,8,9.2c5.2,0,9.5-5.5,14.4-16.6l0.6-1.5v1.5c-0.3,4-0.3,9.5-0.3,13.2c0,3.1,0.3,4.3,1.8,4.3h0.3
		c1.2,0,2.1-0.6,2.8-2.5c3.7-12.6,6.8-18.7,9.8-18.7s3.4,5.5,3.7,15.3v0.6c0,3.4,0.3,4.9,2.1,4.9s2.1-1.2,2.8-4.3l0.6-1.8
		c3.1-10.1,5.5-14.4,8.6-14.4c2.8,0,2.8,2.8,2.8,3.7c0.3,1.8-0.3,3.7-0.3,5.8c-0.3,1.8-0.3,3.7-0.3,5.2c0.3,4,2.1,6.1,6.1,6.1
		c4.9,0,9.5-5.8,13.2-17.2l0.3-0.6l0.3,0.6c0.6,1.8,1.8,4,2.5,7.1v0.3c-3.7,8.6-6.4,17.8-6.4,22.7c0,6.4,3.1,11,7.4,11
		c2.5,0,8.6-0.9,8.6-10.4c0-3.7-0.9-9.2-2.8-16.3l-0.3-0.6l0.6,0.3C367.3,221.5,370,222.4,372.8,222.4 M245.4,190.5
		c0.3-2.5,0.3-4.6,0.6-6.8c1.8-13.8,5.5-23.6,9.2-23.6c1.8,0,2.8,1.2,2.8,4c0,6.4-4,15.3-12,27l-0.6,0.9V190.5L245.4,190.5z
		 M361.4,240.8c-0.6,0.6-1.2,1.2-2.5,1.2c-1.2,0-2.1-0.3-2.8-1.2c-1.8-2.1-1.2-7.4,1.5-16.9l1.2-3.4l0.3-0.9l0.3,0.9
		C362.7,231.6,363.3,238.4,361.4,240.8L361.4,240.8z M362.3,212.9l-0.3-0.3v-0.3c3.7-7.4,7.7-11.7,11.4-11.7c4,0,6.8,3.7,6.8,8.9
		c0,3.4-1.5,5.5-2.8,6.4c-1.5,1.2-3.4,1.8-5.2,1.8C367.6,218.1,364.2,215.3,362.3,212.9z M133.1,221.2c5.5-0.3,9.8-8,11.7-11.4
		l0.3-0.6l0.3,0.9c0.6,4.6,3.1,12.3,11,12.3c3.4,0,7.1-2.1,11-5.8l0.3-0.3l0.3,0.3c2.8,4.3,6.1,6.4,9.8,6.4c5.5-0.3,8.6-4,8.9-6.8
		c0-0.6-0.3-1.2-0.6-1.8c-0.6-0.6-1.2-0.6-1.8-0.3l-0.3,0.3c-1.2,1.2-3.7,3.4-6.1,3.7c-3.1,0.3-5.5-1.8-7.1-5.5v-0.3l0.3-0.3
		c8.6-11.4,14.7-28.2,14.1-39.9c-0.3-5.2-1.8-11.7-7.7-11.7h-0.3c-2.1,0.3-4.3,1.2-6.1,3.1c-5.5,6.1-8.3,20.9-7.1,38.1
		c0.3,3.7,0.6,6.8,1.8,9.8v0.3l-0.3,0.3c-3.1,3.7-6.4,5.8-8.9,5.8c-6.1,0-5.8-10.1-5.5-18.7c0.3-1.8,0.3-3.1-0.3-3.7
		c-0.6-0.6-0.9-0.6-1.8-0.6h-0.3c-2.1,0-2.8,0.3-3.7,3.7c-2.1,6.8-6.8,17.8-11.4,17.8c-1.2,0-2.1-0.3-2.8-1.2
		c-2.1-2.8-0.6-9.8,0.6-15.7c0.3-0.9,0.6-2.1,0.6-2.8c0.3-1.2,0.3-2.1-0.3-3.1c-0.6-0.6-1.5-0.6-2.8-0.6c-1.8,0.3-3.1,0.9-3.7,4.6
		l0.3,0.3l-0.3-0.6c-0.9-1.2-2.5-2.8-5.5-2.8h-0.6c-3.4,0.3-7.1,2.8-9.8,6.1c-3.1,4-4.6,8.9-4.3,14.4c0,0.3,0,0.6,0.3,0.6v0.3
		l-0.3,0.3c-1.8,2.1-4,3.1-5.8,3.1c-3.1,0-4.6-2.1-4.6-6.1c0-6.1,4.3-25.2,4.3-31.9c0-7.4-3.1-11.4-8.9-11.4
		c-8.3,0-14.7,9.5-20.6,28.2l-1.8,5.5l-0.9,2.8l0.3-3.1c0.6-6.4,0.9-13.2,1.2-19.3c0.3-9.2-0.9-15.3-3.7-18.1
		c-1.5-1.8-3.7-2.5-6.1-2.5c-9.8,0-14.7,16.9-18.4,28.8c-1.2,3.7-3.1,11.7-4.6,17.2l0.6-1.2c0.6-7.1,2.5-24.6,2.1-34.1
		c-0.3-10.1-3.7-14.7-11-14.7c-4,0-6.8,2.1-8.6,3.7c-3.1,3.4-4.6,7.4-4.6,10.7c0,2.1,1.2,4,2.1,4c0.6,0,0.9-0.6,1.2-1.2
		c2.1-7.7,5.2-11.4,9.2-11.4c1.5,0,2.8,0.6,3.7,1.5c3.1,3.1,2.5,12,1.5,27.9c-0.3,5.2-0.6,11-0.9,17.5c0,1.2-0.3,2.1-0.3,3.1
		c-0.3,4.6-0.6,8,1.2,8.6c2.1,0.3,3.7-0.6,4.6-2.8c1.2-3.4,3.7-12.3,8.6-28.8c4.6-15.7,8-21.5,12.6-21.5c5.2,0,5.5,8.9,4.6,27.6
		c-0.3,4-0.6,8.6-0.6,13.2v1.5c-0.3,4-0.3,7.4,0.6,8.6c0.3,0.3,0.9,0.6,1.5,0.6c2.1,0,3.1-1.8,4-5.2l0.6-1.8
		c7.7-21.2,13.2-39.6,21.2-39.6c2.1,0,4,1.8,4,5.5c0,8.6-4,24.6-4,32.8c0,3.1,0.6,5.5,2.5,7.7c1.8,1.8,4,3.1,6.4,3.1
		c2.5,0,5.2-1.2,8-3.7l0.3-0.3l0.3,0.3c1.8,2.5,4.6,3.7,7.7,3.4c4.6-0.3,8.6-4.6,10.1-8.6l0.3-0.6l0.3,0.6
		C125.7,218.1,128.2,221.8,133.1,221.2 M177,165.9c0.6,0,1.2,0.3,1.5,0.6c1.8,2.8,1.8,12-1.2,22.4c-1.8,6.1-4.3,11.7-7.1,16.6
		l-0.3,0.6l-0.3-0.9c-0.6-2.5-0.6-4.9-0.6-7.4C167.8,182.2,172.7,166.2,177,165.9L177,165.9z M124.2,203.1
		c-1.8,6.8-4.9,14.7-10.4,15.3h-0.3c-2.5,0-3.7-1.5-4-4.6c-0.3-3.7,1.2-8.3,4-11.4c1.8-2.1,4-3.1,5.8-3.1
		C121.7,199.1,123.6,201.2,124.2,203.1z M150.9,178.8c-2.1,0-3.7,1.8-3.7,3.7c0,2.1,1.8,3.7,3.7,3.7v0.3v-0.3c2.1,0,3.7-1.8,3.7-3.7
		C154.9,180.4,153,178.8,150.9,178.8 M284.1,178.8c-2.1,0-3.7,1.8-3.7,3.7c0,2.1,1.8,3.7,3.7,3.7v0.3v-0.3c2.1,0,3.7-1.8,3.7-3.7
		C287.8,180.4,286.2,178.8,284.1,178.8"/>
</g>
<g id="missouribank" display="none">
	<g display="inline">
		<g>
			<g>
				<path d="M22.7,166.1c0-2.9-0.8-4.4-2.9-4.4S17,163,17,166.1v23.8H5v-36.1h11.5v4.4h0.3c1.6-3.7,4.4-5.2,8.9-5.2
					c5,0,7.3,2.1,8.9,5.5c2.1-4.2,5.5-5.5,9.2-5.5c5.2,0,9.4,2.1,9.4,9.9v27.5H41v-24.1c0-2.9-0.8-4.4-2.9-4.4
					c-2.1,0-2.9,1.3-2.9,4.4v23.8h-12L22.7,166.1L22.7,166.1z"/>
				<path d="M58,142.3h12v9.2H58V142.3z M58,153.8h12v36.3H58V153.8z"/>
				<path d="M84.7,178.7c0,1.3,0.3,2.9,0.8,3.7s1.3,1.3,2.6,1.3c2.1,0,3.7-1.3,3.7-3.1c0-6.5-17.5-2.6-17.5-16.5
					c0-6.3,4.4-11.2,14.4-11.2c9.2,0,13.6,3.7,13.6,11.5H91.8c0-3.1-1.3-3.9-3.1-3.9c-1.8,0-3.1,1-3.1,2.9c0,6,17.5,2.1,17.5,15.7
					c0,7.1-5.5,12-14.6,12c-9.9,0-14.1-4.4-14.1-12.3H84.7L84.7,178.7z"/>
				<path d="M116.1,178.7c0,1.3,0.3,2.9,0.8,3.7c0.5,0.8,1.3,1.3,2.6,1.3c2.1,0,3.7-1.3,3.7-3.1c0-6.5-17.5-2.6-17.5-16.5
					c0-6.3,4.4-11.2,14.4-11.2c9.2,0,13.6,3.7,13.6,11.5h-10.5c0-3.1-1.3-3.9-3.1-3.9c-1.8,0-3.1,1-3.1,2.9c0,6,17.5,2.1,17.5,15.7
					c0,7.1-5.5,12-14.6,12c-9.9,0-14.1-4.4-14.1-12.3H116.1L116.1,178.7z"/>
				<path d="M152.4,191c-14.1,0-15.4-8.6-15.4-19.1c0-9.4,1.8-18.8,15.4-18.8c14.1,0,15.4,8.6,15.4,19.1
					C167.8,181.6,166,191,152.4,191z M152.4,183.4c2.9,0,3.4-2.1,3.4-11.2c0-9.2-0.5-11.2-3.4-11.2c-2.9,0-3.4,2.1-3.4,11.2
					C149.3,181,149.8,183.4,152.4,183.4z"/>
				<path d="M172,153.8h12v23.8c0,2.9,0.8,4.4,2.9,4.4s2.9-1.3,2.9-4.4v-23.8h12v36.3h-11.5v-4.4h-0.3c-1.6,3.7-4.4,5.2-8.9,5.2
					c-5.2,0-9.4-2.1-9.4-9.9L172,153.8L172,153.8z"/>
				<path d="M206.8,153.8h11.5v5.8h0.3c1.3-4.4,4.4-6.8,8.1-6.8h2.1V164c-1-0.3-2.1-0.3-2.9-0.3c-4.4,0-6.8,1.6-6.8,6.5v19.6h-12
					L206.8,153.8L206.8,153.8z"/>
				<path d="M232.9,142.3h12v9.2h-12V142.3z M232.9,153.8h12v36.3h-12V153.8z"/>
				<path d="M250.7,142.3h12V158h0.3c1.3-3.7,4.2-5,7.6-5c6.8,0,11,4.4,11,18.3c0,13.3-2.9,19.9-10.7,19.9c-4.4,0-6.8-2.1-8.4-6
					h-0.3v5h-11.5V142.3L250.7,142.3z M266.1,182.1c2.9,0,3.4-2.4,3.4-9.9c0-7.8-0.5-9.9-3.4-9.9s-3.4,2.4-3.4,9.9
					S263.3,182.1,266.1,182.1z"/>
				<path d="M303.3,190.2c-0.5-1.3-0.5-2.6-0.8-4.2l0,0c-1.3,3.1-4.4,5-8.1,5c-7.3,0-9.9-4.4-9.9-10.7c0-6.8,2.4-9.9,9.9-11.5
					l4.7-1.3c2.6-0.5,3.7-1.8,3.7-3.9s-1-3.4-3.1-3.4c-2.4,0-3.4,1-3.4,4.7h-10.5c0-10.5,8.4-12.3,13.9-12.3
					c8.4,0,14.4,2.1,14.4,11.5v17.8c0,3.4,0.3,6,1.3,7.8L303.3,190.2L303.3,190.2z M302.7,176.8v-4.2h-0.3c-0.5,1-2.4,0.8-4.2,1.8
					c-2.1,0.8-2.6,2.4-2.6,4.7c0,2.4,1.3,3.9,2.9,3.9C301.4,182.9,302.7,181,302.7,176.8z"/>
				<path d="M319.7,153.8h11.5v4.4h0.3c1.6-3.7,4.4-5.2,8.9-5.2c5.2,0,9.4,2.1,9.4,9.9v27.5h-12v-24.1c0-2.9-0.8-4.4-2.9-4.4
					s-2.9,1.3-2.9,4.4v23.8h-12L319.7,153.8L319.7,153.8z"/>
				<path d="M354.5,142.3h12v24.1h0.3l6.8-12.5h12.8l-9.9,14.9l11.2,21.2h-12.8l-6-12.3l-2.1,3.1v9.2h-12
					C354.5,189.9,354.5,142.3,354.5,142.3z"/>
			</g>
			<g>
				<path d="M131.5,221h2.1v9.7l0,0c0.8-2.4,3.4-3.7,5.8-3.7c5.2,0,7.6,4.2,7.6,8.9c0,4.7-2.4,8.9-7.6,8.9c-2.9,0-5-1.3-6-3.7l0,0
					v3.1h-1.8V221z M139.3,228.9c-4.4,0-6,3.7-6,7.1c0,3.7,1.6,7.1,6,7.1c3.9,0,5.5-3.7,5.5-7.1
					C144.8,232.3,143.3,228.9,139.3,228.9z"/>
				<path d="M151.9,236.2c0,2.9,1.6,6.5,5.5,6.5c2.9,0,4.4-1.8,5.2-4.4h2.1c-0.8,3.7-3.1,6-7.3,6c-5.2,0-7.6-4.2-7.6-8.9
					c0-4.4,2.1-8.9,7.6-8.9c5.2,0,7.6,4.7,7.3,9.4L151.9,236.2L151.9,236.2z M162.6,234.6c-0.3-3.1-2.1-6-5.2-6
					c-3.4,0-5.2,2.9-5.5,6H162.6z"/>
				<path d="M174.1,232h2.6v1.3h-2.6v8.4c0,1,0.3,1.6,1.3,1.6c0.5,0,0.8,0,1.3,0v1.3c-0.5,0-0.8,0-1.3,0c-2.1,0-2.6-0.5-2.6-2.9
					v-8.4h-2.1V232h2.1v-3.7h1.6L174.1,232L174.1,232z"/>
				<path d="M179.1,227.3h1.3v6.8l0,0c0.5-1.3,2.1-2.4,3.9-2.4c3.4,0,4.4,1.8,4.4,4.7v7.8h-1.6v-7.6c0-2.1-0.5-3.7-3.1-3.7
					c-2.4,0-3.7,1.8-3.7,4.2v7.1h-1.3V227.3z"/>
				<path d="M193.2,238.5c0,2.1,1.3,4.7,3.9,4.7c2.1,0,3.4-1.3,3.7-3.1h1.3c-0.5,2.9-2.1,4.4-5.2,4.4c-3.9,0-5.5-2.9-5.5-6.5
					c0-3.1,1.6-6.5,5.5-6.5s5.5,3.4,5.2,6.8L193.2,238.5L193.2,238.5z M201,237.2c0-2.1-1.3-4.4-3.9-4.4c-2.4,0-3.7,2.1-3.9,4.4H201
					z"/>
				<path d="M226.7,244h-2.4v-3.9l0,0c-1.3,2.9-4.4,4.7-7.6,4.7c-6.5,0-9.4-5.2-9.4-11.2c0-6,3.1-11.2,9.4-11.2
					c3.1,0,6.3,1.6,7.3,4.7l0,0v-12.3h2.6V244z M216.5,242.5c5.5,0,7.6-4.7,7.6-9.2c0-4.4-2.1-9.2-7.6-9.2c-5,0-6.8,4.7-6.8,9.2
					C209.7,237.8,211.5,242.5,216.5,242.5z"/>
				<path d="M232.4,214.8h2.6v4.2h-2.6V214.8z M232.4,222.9h2.6V244h-2.6V222.9z"/>
				<path d="M249.2,224.9H245V244h-2.6v-19.1h-3.7v-2.1h3.7v-2.1c0-3.7,1-6,5.2-6c0.8,0,1.3,0,2.1,0.3v2.1c-0.8-0.3-1.3-0.3-2.1-0.3
					c-2.9,0-2.9,1.8-2.9,4.2v1.8h4.2C249.2,222.9,249.2,224.9,249.2,224.9z"/>
				<path d="M262,224.9h-4.2V244h-2.6v-19.1h-3.7v-2.1h3.7v-2.1c0-3.7,1-6,5.2-6c0.8,0,1.3,0,2.1,0.3v2.1c-0.8-0.3-1.3-0.3-2.1-0.3
					c-2.9,0-2.9,1.8-2.9,4.2v1.8h4.2C262,222.9,262,224.9,262,224.9z"/>
				<path d="M266.9,234.4c0,3.7,2.1,8.4,6.8,8.4c3.7,0,6-2.1,6.8-5.5h2.6c-1.3,4.7-3.9,7.6-9.2,7.6c-6.8,0-9.7-5.2-9.7-11.2
					c0-5.5,2.9-11.2,9.7-11.2s9.4,6,9.2,11.8L266.9,234.4L266.9,234.4z M280.5,232c-0.3-3.9-2.6-7.6-6.8-7.6s-6.5,3.7-6.8,7.6H280.5
					z"/>
				<path d="M287.6,222.9h2.4v5l0,0c1.3-3.4,4.2-5.5,8.1-5.2v2.6c-4.7-0.3-7.8,3.1-7.8,7.6V244h-2.6V222.9z"/>
				<path d="M302,234.4c0,3.7,2.1,8.4,6.8,8.4c3.7,0,6-2.1,6.8-5.5h2.6c-1.3,4.7-3.9,7.6-9.2,7.6c-6.8,0-9.7-5.2-9.7-11.2
					c0-5.5,2.9-11.2,9.7-11.2c6.8,0,9.4,6,9.2,11.8L302,234.4L302,234.4z M315.8,232c-0.3-3.9-2.6-7.6-6.8-7.6
					c-4.2,0-6.5,3.7-6.8,7.6H315.8z"/>
				<path d="M322.9,222.9h2.6v3.7l0,0c1-2.6,3.7-4.4,6.8-4.4c6,0,7.6,3.1,7.6,8.1v13.6h-2.6v-13.1c0-3.7-1.3-6.5-5.2-6.5
					c-4.2,0-6.5,3.1-6.8,7.3v12.3h-2.6L322.9,222.9L322.9,222.9z"/>
				<path d="M360.5,229.7c-0.8-3.1-2.6-5.2-6-5.2c-5,0-7.6,4.4-7.6,9.2c0,4.4,2.6,9.2,7.6,9.2c3.1,0,6-2.6,6-6h2.6
					c-0.8,5.2-3.9,8.4-8.6,8.4c-6.5,0-9.9-5.2-9.9-11.2c0-6,3.7-11.2,9.9-11.2c4.4,0,8.1,2.4,8.6,7.3h-2.6V229.7z"/>
				<path d="M369.4,234.4c0,3.7,2.1,8.4,6.8,8.4c3.7,0,6-2.1,6.8-5.5h2.6c-1.3,4.7-3.9,7.6-9.2,7.6c-6.8,0-9.7-5.2-9.7-11.2
					c0-5.5,2.9-11.2,9.7-11.2c6.8,0,9.4,6,9.2,11.8L369.4,234.4L369.4,234.4z M383,232c-0.3-3.9-2.6-7.6-6.8-7.6
					c-4.2,0-6.5,3.7-6.8,7.6H383z"/>
			</g>
		</g>
		<g>
			<path d="M391.4,215.8c2.1,0,3.7,1.3,3.7,3.7s-1.8,3.7-3.7,3.7c-1.8,0-3.7-1.3-3.7-3.7C387.5,217.1,389.3,215.8,391.4,215.8z
				 M391.4,222.6c1.6,0,2.9-1.3,2.9-2.9s-1.3-2.9-2.9-2.9c-1.6,0-2.9,1.3-2.9,2.9C388.5,221,389.8,222.6,391.4,222.6z M389.8,217.4
				h1.6c1,0,1.6,0.5,1.6,1.3c0,0.8-0.5,1-1.3,1.3l1.3,1.8h-0.8l-1-1.8h-0.5v1.8h-0.8C389.8,221.6,389.8,217.4,389.8,217.4z
				 M390.6,219.2h0.8c0.5,0,0.8,0,0.8-0.5c0-0.5-0.5-0.5-0.8-0.5h-0.8V219.2z"/>
		</g>
	</g>
</g>
<g id="smckc" display="none">
	<g display="inline">
		<path d="M283.6,252.1c0,11.6-9.4,21-21,21H132.7c-11.6,0-21-9.4-21-21V122.2c0-11.6,9.4-21,21-21h129.9c11.6,0,21,9.4,21,21V252.1
			z"/>
		<g>
			<path fill="#FFFFFF" d="M158.9,249l-0.6,3.6h2.2v3.1h-2.7l-0.6,3.7h-3.2l0.6-3.7H151l-0.6,3.7h-3.2l0.6-3.7h-1.9v-3.1h2.4
				l0.6-3.6h-2.2v-3.1h2.7l0.6-3.6h3.2l-0.6,3.6h3.6l0.6-3.6h3.2l-0.6,3.6h1.9v3.1H158.9z M152.1,249l-0.6,3.6h3.6l0.6-3.6H152.1z"
				/>
			<path fill="#FFFFFF" d="M169.8,259.7c-2.6,0-5.2-0.9-7.3-2.7l2.2-2.7c1.5,1.3,3.2,2.1,5.1,2.1c1.5,0,2.5-0.6,2.5-1.6v0
				c0-1-0.6-1.4-3.5-2.2c-3.5-0.9-5.7-1.8-5.7-5.3v0c0-3.1,2.5-5.2,6-5.2c2.5,0,4.6,0.8,6.4,2.2l-2,2.8c-1.5-1.1-3-1.7-4.5-1.7
				c-1.4,0-2.2,0.7-2.2,1.5v0c0,1.1,0.7,1.5,3.7,2.3c3.5,0.9,5.4,2.2,5.4,5.2v0C176.1,257.8,173.5,259.7,169.8,259.7z"/>
			<path fill="#FFFFFF" d="M192.3,259.4v-11.2l-4.8,7.3h-0.1l-4.8-7.3v11.1h-3.7v-17.2h4.1l4.5,7.3l4.5-7.3h4.1v17.2H192.3z"/>
			<path fill="#FFFFFF" d="M207.7,259.7c-5.1,0-8.8-3.9-8.8-8.8v0c0-4.9,3.7-8.9,9-8.9c3.2,0,5.2,1.1,6.8,2.6l-2.4,2.8
				c-1.3-1.2-2.7-1.9-4.4-1.9c-2.9,0-5,2.4-5,5.3v0c0,2.9,2,5.4,5,5.4c2,0,3.2-0.8,4.5-2l2.4,2.4C212.9,258.5,211,259.7,207.7,259.7
				z"/>
			<path fill="#FFFFFF" d="M228,259.4l-5.3-7.3l-2,2.1v5.3h-3.8v-17.2h3.8v7.5l7-7.5h4.6l-7,7.3l7.3,9.9H228z"/>
			<path fill="#FFFFFF" d="M241.2,259.7c-5.1,0-8.8-3.9-8.8-8.8v0c0-4.9,3.7-8.9,9-8.9c3.2,0,5.2,1.1,6.8,2.6l-2.4,2.8
				c-1.3-1.2-2.7-1.9-4.4-1.9c-2.9,0-5,2.4-5,5.3v0c0,2.9,2,5.4,5,5.4c2,0,3.2-0.8,4.5-2l2.4,2.4
				C246.5,258.5,244.5,259.7,241.2,259.7z"/>
		</g>
		<g>
			<path d="M113.3,295.9v-12.4h2.7v12.4H113.3z"/>
			<path d="M122.5,285.1c-0.6,0-1,0.3-1,1v0.4h2.2v2.2h-2.2v7.2h-2.7v-7.2h-1.1v-2.2h1.1v-0.6c0-2.1,1-3.1,3-3.1
				c0.9,0,1.4,0.1,1.9,0.3v2.2C123.4,285.2,123,285.1,122.5,285.1z"/>
			<path d="M135,296.2c-0.7,1.9-1.5,2.7-3.1,2.7c-1,0-1.7-0.2-2.4-0.7l0.9-2c0.4,0.2,0.8,0.4,1.2,0.4c0.5,0,0.7-0.1,0.9-0.6
				l-3.7-9.6h2.9l2.2,6.5l2.1-6.5h2.8L135,296.2z"/>
			<path d="M144,296.1c-3,0-5.1-2.2-5.1-4.9v0c0-2.7,2.2-5,5.2-5c3,0,5.1,2.2,5.1,4.9v0C149.2,293.9,147,296.1,144,296.1z
				 M146.5,291.2c0-1.4-1-2.6-2.5-2.6c-1.5,0-2.5,1.2-2.5,2.6v0c0,1.4,1,2.6,2.5,2.6C145.6,293.8,146.5,292.6,146.5,291.2
				L146.5,291.2z"/>
			<path d="M156.6,295.9v-1.4c-0.6,0.8-1.4,1.5-2.8,1.5c-2,0-3.2-1.4-3.2-3.5v-6.2h2.7v5.3c0,1.3,0.6,1.9,1.6,1.9
				c1,0,1.7-0.7,1.7-1.9v-5.3h2.7v9.5H156.6z"/>
			<path d="M170.5,298.8c-1.5,0-3-0.4-4.2-1l0.9-2c1,0.6,2,0.9,3.2,0.9c1.8,0,2.7-0.9,2.7-2.6v-0.5c-0.8,1-1.7,1.5-3.1,1.5
				c-2.2,0-4.2-1.6-4.2-4.4v0c0-2.8,2-4.4,4.2-4.4c1.5,0,2.3,0.6,3.1,1.4v-1.2h2.7v7.4C175.8,297.4,174,298.8,170.5,298.8z
				 M173.1,290.7c0-1.3-1-2.2-2.3-2.2c-1.3,0-2.3,0.9-2.3,2.2v0c0,1.3,1,2.2,2.3,2.2C172.1,292.9,173.1,292,173.1,290.7L173.1,290.7
				z"/>
			<path d="M186.6,292.1H180c0.3,1.2,1.1,1.9,2.3,1.9c0.9,0,1.6-0.3,2.3-1l1.5,1.4c-0.9,1.1-2.2,1.8-3.9,1.8c-2.9,0-5-2-5-4.9v0
				c0-2.7,1.9-5,4.7-5c3.2,0,4.6,2.5,4.6,5.2v0C186.7,291.7,186.6,291.9,186.6,292.1z M182,288.4c-1.1,0-1.8,0.8-2.1,2h4.1
				C183.9,289.2,183.2,288.4,182,288.4z"/>
			<path d="M191.4,296.1c-1.7,0-2.8-0.7-2.8-2.9v-4.5h-1.1v-2.3h1.1V284h2.7v2.4h2.2v2.3h-2.2v4.1c0,0.6,0.3,0.9,0.9,0.9
				c0.5,0,0.9-0.1,1.3-0.3v2.2C193,295.9,192.3,296.1,191.4,296.1z"/>
			<path d="M200.1,285.3v-2.4h2.8v2.4H200.1z M200.2,295.9v-9.5h2.7v9.5H200.2z"/>
			<path d="M208.2,296.1c-1.7,0-2.8-0.7-2.8-2.9v-4.5h-1.1v-2.3h1.1V284h2.7v2.4h2.2v2.3h-2.2v4.1c0,0.6,0.3,0.9,0.9,0.9
				c0.5,0,0.9-0.1,1.3-0.3v2.2C209.7,295.9,209.1,296.1,208.2,296.1z"/>
			<path d="M212.9,295.9h-1.1v-2.8h2.9v2.4c0,2.3-1.2,3.3-3.3,3.3l-0.2-1.1C212.4,297.6,213,296.9,212.9,295.9z"/>
			<path d="M224.8,296.1c-1.3,0-2.8-0.4-4.1-1.4l1.2-1.8c1,0.7,2.1,1.1,3,1.1c0.8,0,1.1-0.3,1.1-0.7v0c0-0.6-0.9-0.8-2-1.1
				c-1.3-0.4-2.8-1-2.8-2.9v0c0-1.9,1.6-3,3.5-3c1.2,0,2.5,0.4,3.6,1.1l-1,1.9c-0.9-0.6-1.9-0.9-2.6-0.9c-0.7,0-1,0.3-1,0.7v0
				c0,0.5,0.9,0.8,1.9,1.1c1.3,0.4,2.9,1.1,2.9,2.8v0C228.4,295.1,226.8,296.1,224.8,296.1z"/>
			<path d="M235.9,295.9v-5.3c0-1.3-0.6-1.9-1.6-1.9c-1,0-1.7,0.7-1.7,1.9v5.3h-2.7v-13h2.7v4.8c0.6-0.8,1.4-1.5,2.8-1.5
				c2,0,3.2,1.4,3.2,3.5v6.2H235.9z"/>
			<path d="M246.1,295.9v-1c-0.7,0.7-1.6,1.2-2.9,1.2c-1.8,0-3.3-1-3.3-2.9v0c0-2.1,1.6-3,3.8-3c1,0,1.7,0.2,2.3,0.4v-0.2
				c0-1.1-0.7-1.7-2-1.7c-1,0-1.8,0.2-2.6,0.5l-0.7-2.1c1-0.5,2.1-0.8,3.7-0.8c3,0,4.2,1.5,4.2,4.1v5.5H246.1z M246.2,292.1
				c-0.5-0.2-1.1-0.4-1.7-0.4c-1.2,0-1.9,0.5-1.9,1.3v0c0,0.7,0.6,1.2,1.5,1.2c1.3,0,2.1-0.7,2.1-1.7V292.1z"/>
			<path d="M256.2,289c-1.8,0-2.9,1.1-2.9,3.4v3.5h-2.7v-9.5h2.7v1.9c0.6-1.3,1.4-2.2,3-2.1v2.8H256.2z"/>
			<path d="M266.2,292.1h-6.6c0.3,1.2,1.1,1.9,2.3,1.9c0.9,0,1.6-0.3,2.3-1l1.5,1.4c-0.9,1.1-2.2,1.8-3.9,1.8c-2.9,0-5-2-5-4.9v0
				c0-2.7,1.9-5,4.7-5c3.2,0,4.6,2.5,4.6,5.2v0C266.2,291.7,266.2,291.9,266.2,292.1z M261.6,288.4c-1.1,0-1.8,0.8-2.1,2h4.1
				C263.4,289.2,262.7,288.4,261.6,288.4z"/>
			<path d="M272.7,285.3v-2.4h2.8v2.4H272.7z M272.8,295.9v-9.5h2.7v9.5H272.8z"/>
			<path d="M280.8,296.1c-1.7,0-2.8-0.7-2.8-2.9v-4.5h-1.1v-2.3h1.1V284h2.7v2.4h2.2v2.3h-2.2v4.1c0,0.6,0.3,0.9,0.9,0.9
				c0.5,0,0.9-0.1,1.3-0.3v2.2C282.4,295.9,281.7,296.1,280.8,296.1z"/>
		</g>
		<g>
			<path fill="#FFFFFF" d="M139.8,131.2c5.3,1.3,8,3.2,8,7.4c0,4.7-3.7,7.5-8.9,7.5c-3.8,0-7.4-1.3-10.4-4l2.6-3.1
				c2.4,2.1,4.8,3.3,7.9,3.3c2.7,0,4.4-1.3,4.4-3.2c0-1.8-1-2.8-5.6-3.9c-5.3-1.3-8.3-2.9-8.3-7.5c0-4.4,3.6-7.3,8.5-7.3
				c3.6,0,6.5,1.1,9.1,3.1l-2.4,3.3c-2.3-1.7-4.5-2.6-6.8-2.6c-2.6,0-4.1,1.3-4.1,3C133.8,129.2,135,130,139.8,131.2z"/>
			<path fill="#FFFFFF" d="M163.5,146.1c-7.7,0-13-5.8-13-12.9c0-7.1,5.4-13,13.1-13c7.7,0,13,5.8,13,12.9S171.2,146.1,163.5,146.1z
				 M163.5,124.3c-5,0-8.4,4-8.4,8.9s3.5,8.9,8.5,8.9c5,0,8.4-4,8.4-8.9C172,128.3,168.5,124.3,163.5,124.3z"/>
			<path fill="#FFFFFF" d="M192.4,146.1c-7.3,0-12.7-5.7-12.7-12.9c0-7.1,5.3-13,12.9-13c4.6,0,7.4,1.6,9.8,3.9l-2.8,3.3
				c-2-1.9-4.1-3.1-7-3.1c-4.8,0-8.3,3.9-8.3,8.9c0,4.9,3.5,8.9,8.3,8.9c3.1,0,5-1.3,7.2-3.3l2.8,2.9
				C199.9,144.4,197,146.1,192.4,146.1z"/>
			<path fill="#FFFFFF" d="M210.4,120.7v25H206v-25H210.4z"/>
			<path fill="#FFFFFF" d="M239.6,145.7h-4.6l-2.5-6h-11.8l-2.6,6h-4.5l11-25.2h4.1L239.6,145.7z M226.5,125.7l-4.3,10h8.6
				L226.5,125.7z"/>
			<path fill="#FFFFFF" d="M242.6,120.7h4.4v21h13.2v4h-17.5V120.7z"/>
			<path fill="#FFFFFF" d="M149.4,178.2v-16.3l-7,10.7h-0.1l-7-10.6v16.2h-5.4v-25h5.9l6.6,10.6l6.6-10.6h5.9v25H149.4z"/>
			<path fill="#FFFFFF" d="M159.3,178.2v-25h18.9v4.9h-13.4v5.1h11.8v4.9h-11.8v5.3h13.6v4.9H159.3z"/>
			<path fill="#FFFFFF" d="M192.4,178.2h-9.8v-25h9.8c7.9,0,13.3,5.4,13.3,12.4v0.1C205.7,172.7,200.2,178.2,192.4,178.2z
				 M199.9,165.6c0-4.4-3-7.5-7.5-7.5h-4.3v15.1h4.3C196.9,173.2,199.9,170.2,199.9,165.6L199.9,165.6z"/>
			<path fill="#FFFFFF" d="M209.7,178.2v-25h5.5v25H209.7z"/>
			<path fill="#FFFFFF" d="M238.7,178.2l-2.3-5.6h-10.6l-2.3,5.6h-5.6l10.7-25.2h5.1l10.7,25.2H238.7z M231.1,159.6l-3.3,8.1h6.6
				L231.1,159.6z"/>
			<path fill="#FFFFFF" d="M141.7,211.1c-7.3,0-12.7-5.7-12.7-12.9c0-7.1,5.3-13,12.9-13c4.6,0,7.4,1.6,9.8,3.9l-2.8,3.3
				c-2-1.9-4.1-3.1-7-3.1c-4.8,0-8.3,3.9-8.3,8.9c0,4.9,3.5,8.9,8.3,8.9c3.1,0,5-1.3,7.2-3.3l2.8,2.9
				C149.3,209.4,146.4,211.1,141.7,211.1z"/>
			<path fill="#FFFFFF" d="M155.3,185.6h4.4v21h13.2v4h-17.5V185.6z"/>
			<path fill="#FFFFFF" d="M195.7,199.8c0,7.5-4.2,11.2-10.8,11.2c-6.5,0-10.6-3.8-10.6-11v-14.4h4.4v14.2c0,4.6,2.4,7.1,6.3,7.1
				c3.9,0,6.3-2.4,6.3-7v-14.4h4.4V199.8z"/>
			<path fill="#FFFFFF" d="M220.5,192c0,3.1-1.7,4.6-3.6,5.6c2.9,1,5,2.7,5,6.1c0,4.5-3.7,6.9-9.3,6.9H201v-25h11.2
				C217.3,185.6,220.5,188.1,220.5,192z M216.1,192.7c0-2-1.6-3.2-4.4-3.2h-6.3v6.6h6C214.2,196.2,216.1,195.1,216.1,192.7z
				 M217.5,203.3c0-2.1-1.7-3.4-5.1-3.4h-7v6.9h7.3C215.7,206.7,217.5,205.6,217.5,203.3z"/>
			<path fill="#FFFFFF" d="M242.6,210.6l-7.8-10.6l-2.9,3v7.6h-5.5v-25h5.5v10.9l10.1-10.9h6.6l-10.2,10.6l10.6,14.4H242.6z"/>
			<path fill="#FFFFFF" d="M260.3,211.1c-7.4,0-12.8-5.7-12.8-12.9v-0.1c0-7.1,5.4-12.9,13-12.9c4.7,0,7.5,1.6,9.9,3.9l-3.5,4
				c-1.9-1.8-3.9-2.8-6.4-2.8c-4.2,0-7.3,3.5-7.3,7.8v0.1c0,4.3,3,7.9,7.3,7.9c2.9,0,4.6-1.1,6.6-2.9l3.5,3.5
				C267.9,209.4,265.1,211.1,260.3,211.1z"/>
		</g>
		<line fill="none" stroke="#FFFFFF" stroke-width="5" stroke-miterlimit="10" x1="107.8" y1="228.9" x2="292.2" y2="228.9"/>
	</g>
</g>
<g id="nahm" display="none">
	
		<image display="inline" overflow="visible" width="385" height="146" xlink:href="E_Hangar9.png"  transform="matrix(1.0026 0 0 1.0026 6.9943 126.8082)">
	</image>
</g>
<g id="niic" display="none">
	<g display="inline">
		<path fill="#231F20" d="M226.7,188.3h-2.3v6.6c0,1.1,0.5,1.3,1.2,1.3c0.4,0,1-0.1,1.2-0.1v3.1c-0.5,0.1-1.7,0.2-2.5,0.2
			c-3.4,0-3.8-2.1-3.8-4v-7.1h-1.9v-2.4h1.9V182h3.9v3.9h2.3L226.7,188.3L226.7,188.3z"/>
		<path fill="#231F20" d="M229,181.1h3.9v5.8h0c0.8-1,2.5-1.6,3.7-1.6c2.8,0,4.2,1.6,4.2,4.3v9.4h-3.9V191c0-2.1-1.1-2.6-2-2.6
			c-0.9,0-2,0.6-2,3.1v7.5H229L229,181.1L229,181.1z"/>
		<path fill="#231F20" d="M247.3,190.7c0.2-1.8,1.5-2.6,2.7-2.6c1.1,0,2.6,0.6,2.7,2.6H247.3z M256.6,193.2c0-4.1-1.7-7.9-6.6-7.9
			c-4.1,0-6.6,2.7-6.6,7.5c0,3.8,2.4,6.7,6.6,6.7c3,0,5.2-1.2,6.5-3.7l-3-1.5c-1.1,1.6-1.8,2.4-3.3,2.4c-1.3,0-2.9-0.8-2.9-3.4
			L256.6,193.2L256.6,193.2z"/>
		<path fill="#231F20" d="M270.1,192.3c0-2.3,0.8-4.2,2.8-4.2s2.7,1.9,2.7,3.8c0,2.7-0.7,4.6-2.7,4.6
			C270.8,196.5,270.1,194.6,270.1,192.3z M266.2,203.5h3.9v-5.3h0.1c0.9,0.8,2,1.2,3.3,1.2c3.6,0,5.7-2.5,5.7-7.5
			c0-4.3-2.6-6.6-5.8-6.6c-1.2,0-2.7,0.4-3.6,1.6h-0.1v-1.2h-3.6V203.5z"/>
		<path fill="#231F20" d="M284.8,190.7c0.2-1.8,1.5-2.6,2.7-2.6s2.6,0.6,2.7,2.6H284.8z M294.1,193.2c0-4.1-1.7-7.9-6.6-7.9
			c-4.1,0-6.6,2.7-6.6,7.5c0,3.8,2.4,6.7,6.6,6.7c3,0,5.2-1.2,6.5-3.7l-3-1.5c-1.1,1.6-1.8,2.4-3.3,2.4c-1.3,0-2.9-0.8-2.9-3.4
			L294.1,193.2L294.1,193.2z"/>
		<path fill="#231F20" d="M303,188.3c2.2,0,3.2,1.7,3.2,3.9c0,2.5-1,4.2-3.2,4.2s-3.2-1.7-3.2-4C299.8,190.1,300.8,188.3,303,188.3z
			 M303,185.3c-4.2,0-7.1,2.6-7.1,7.1c0,4.5,3,7.1,7.1,7.1c4.2,0,7.1-2.6,7.1-7.1C310.2,187.8,307.2,185.3,303,185.3z"/>
		<path fill="#231F20" d="M316.4,192.3c0-2.3,0.8-4.2,2.8-4.2c2,0,2.7,1.9,2.7,3.8c0,2.7-0.7,4.6-2.7,4.6
			C317.1,196.5,316.4,194.6,316.4,192.3z M312.6,203.5h3.9v-5.3h0c0.9,0.8,2,1.2,3.3,1.2c3.6,0,5.7-2.5,5.7-7.5
			c0-4.3-2.6-6.6-5.8-6.6c-1.2,0-2.7,0.4-3.6,1.6h-0.1v-1.2h-3.6L312.6,203.5L312.6,203.5z"/>
		<path fill="#231F20" d="M328.2,199.1v-18h3.9v18H328.2z"/>
		<path fill="#231F20" d="M338.6,190.7c0.2-1.8,1.5-2.6,2.7-2.6c1.1,0,2.6,0.6,2.7,2.6H338.6z M347.9,193.2c0-4.1-1.7-7.9-6.6-7.9
			c-4.1,0-6.6,2.7-6.6,7.5c0,3.8,2.4,6.7,6.6,6.7c3,0,5.2-1.2,6.5-3.7l-3-1.5c-1.1,1.6-1.8,2.4-3.3,2.4c-1.3,0-2.9-0.8-2.9-3.4
			L347.9,193.2L347.9,193.2z"/>
		<path fill="#231F20" d="M202.9,218.9c0-2.3,0.7-4.2,2.8-4.2c2.1,0,2.7,1.6,2.7,4.2c0,2.3-0.7,4.2-2.7,4.2
			C203.6,223.1,202.9,221.2,202.9,218.9z M199,225.7h3.8v-1.3h0.1c0.7,0.8,1.9,1.7,3.5,1.7c3.4,0,6-2.1,6-7.5c0.1-4.8-3-6.7-5.7-6.7
			c-1.1,0-2.5,0.3-3.7,1.6v-5.8H199C199,207.7,199,225.7,199,225.7z"/>
		<path fill="#231F20" d="M217.9,217.3c0.2-1.8,1.5-2.6,2.7-2.6c1.1,0,2.6,0.6,2.7,2.6H217.9z M227.2,219.7c0-4.1-1.7-7.9-6.6-7.9
			c-4.1,0-6.6,2.7-6.6,7.5c0,3.8,2.4,6.7,6.6,6.7c3,0,5.2-1.2,6.5-3.7l-3-1.5c-1.1,1.6-1.8,2.4-3.3,2.4c-1.3,0-2.9-0.8-2.9-3.4
			L227.2,219.7L227.2,219.7z"/>
		<path fill="#231F20" d="M229.9,207.7h3.9v5.8h0.1c0.8-1,2.5-1.6,3.7-1.6c2.8,0,4.2,1.6,4.2,4.3v9.4h-3.9v-8.1c0-2.1-1.1-2.6-2-2.6
			c-0.9,0-2,0.6-2,3.1v7.5h-3.9L229.9,207.7L229.9,207.7z"/>
		<path fill="#231F20" d="M249.3,212.2v13.4h-3.9v-13.4H249.3z M245.3,210.7v-3h3.9v3C249.3,210.7,245.3,210.7,245.3,210.7z"/>
		<path fill="#231F20" d="M252.8,212.2h3.9v1.2c1-1.2,2.7-1.5,3.9-1.5c3.2,0,4.1,1.8,4.1,3.9v9.9h-3.9v-8.4c0-1.3-0.4-2.2-1.9-2.2
			c-1.6,0-2.1,1-2.1,2.2v8.4h-3.9V212.2z"/>
		<path fill="#231F20" d="M276.7,218.7c0,2.6-0.7,4.5-2.8,4.5c-2.2,0-2.7-2-2.7-4.2c0-2.6,0.8-4.2,2.7-4.2
			C276,214.7,276.7,216.3,276.7,218.7z M280.6,207.7h-3.9v5.6c-1.2-1.2-2.6-1.4-3.7-1.4c-2.7,0-5.8,1.8-5.7,7.2c0.1,4.9,2.7,7,5.9,7
			c1.8,0,3-0.8,3.6-1.7h0.1v1.3h3.8L280.6,207.7L280.6,207.7z"/>
		<path fill="#231F20" d="M223,241.1c0.2-1.8,1.5-2.6,2.7-2.6c1.1,0,2.6,0.6,2.7,2.6H223z M232.3,243.6c0-4.1-1.7-7.9-6.6-7.9
			c-4.1,0-6.6,2.7-6.6,7.5c0,3.8,2.4,6.7,6.6,6.7c3,0,5.2-1.2,6.5-3.7l-3-1.5c-1.1,1.6-1.8,2.4-3.3,2.4c-1.3,0-2.9-0.8-2.9-3.4
			L232.3,243.6L232.3,243.6z"/>
		<path fill="#231F20" d="M247.6,237.1c-0.9-1.5-2.3-2.3-4.2-2.3c-2.8,0-4.6,1.8-4.6,5.7c0,3.5,1.6,5.7,4.6,5.7c1.6,0,3.8-1,4-3.3
			h-4v-3.5h7.8v10h-3.5v-1.6c-1.2,1.3-3,2.1-5.2,2.1c-5.4,0-8.2-3.9-8.2-9.4c0-5.5,3-9.6,8.8-9.6c3.5,0,6.5,1.6,8.3,4.5L247.6,237.1
			z"/>
		<path fill="#231F20" d="M260.4,238.7c2.2,0,3.2,1.7,3.2,3.9c0,2.5-1,4.2-3.2,4.2c-2.2,0-3.2-1.7-3.2-4S258.2,238.7,260.4,238.7z
			 M260.4,235.7c-4.2,0-7.1,2.6-7.1,7.1s3,7.1,7.1,7.1c4.2,0,7.2-2.6,7.2-7.1S264.6,235.7,260.4,235.7z"/>
		<path fill="#231F20" d="M268.4,236h4.2l2.3,9.5h0l2.3-9.5h4.2l-4.6,13.4h-4L268.4,236z"/>
		<path fill="#231F20" d="M286.2,241.1c0.2-1.8,1.5-2.6,2.7-2.6c1.1,0,2.5,0.6,2.7,2.6H286.2z M295.5,243.6c0-4.1-1.7-7.9-6.6-7.9
			c-4.1,0-6.6,2.7-6.6,7.5c0,3.8,2.4,6.7,6.6,6.7c3,0,5.2-1.2,6.5-3.7l-3-1.5c-1.1,1.6-1.8,2.4-3.3,2.4c-1.3,0-2.9-0.8-2.9-3.4
			L295.5,243.6L295.5,243.6z"/>
		<path fill="#231F20" d="M298.2,236h3.9v1.4c0.9-0.8,2.3-1.3,3.7-1.4l0,3.5l-0.4,0c-2.3,0.3-3.3,0.7-3.3,2.2v7.8h-3.9L298.2,236
			L298.2,236z"/>
		<path fill="#231F20" d="M308.1,236h3.9v1.2c1-1.2,2.7-1.5,3.9-1.5c3.2,0,4.1,1.8,4.1,3.9v9.9H316v-8.4c0-1.3-0.4-2.2-1.9-2.2
			c-1.6,0-2.1,1-2.1,2.2v8.4h-3.9V236z"/>
		<path fill="#231F20" d="M323.5,236h3.9v1.2c1-1.2,2.7-1.5,3.9-1.5c1.5,0,2.7,0.6,3.6,1.8c1.3-1.3,2.8-1.8,4.3-1.8
			c1.3,0,4.1,0.5,4.1,3.5v10.3h-3.9v-7.9c0-1.9-0.5-2.8-2-2.8c-1.3,0-2,1-2,2.3v8.3h-3.9v-8.4c0-1.3-0.4-2.2-1.9-2.2
			c-1.6,0-2.1,1-2.1,2.2v8.4h-3.9V236z"/>
		<path fill="#231F20" d="M349.8,241.1c0.2-1.8,1.5-2.6,2.7-2.6s2.6,0.6,2.7,2.6H349.8z M359.1,243.6c0-4.1-1.7-7.9-6.6-7.9
			c-4.1,0-6.6,2.7-6.6,7.5c0,3.8,2.4,6.7,6.6,6.7c3,0,5.2-1.2,6.5-3.7l-3-1.5c-1.1,1.6-1.8,2.4-3.3,2.4c-1.3,0-2.9-0.8-2.9-3.4
			L359.1,243.6L359.1,243.6z"/>
		<path fill="#231F20" d="M361.9,236h3.9v1.2c1-1.2,2.7-1.5,3.9-1.5c3.2,0,4.1,1.8,4.1,3.9v9.9h-3.9v-8.4c0-1.3-0.4-2.2-1.9-2.2
			c-1.6,0-2.1,1-2.1,2.2v8.4h-3.9L361.9,236L361.9,236z"/>
		<path fill="#231F20" d="M384,238.7h-2.3v6.6c0,1.1,0.5,1.3,1.2,1.3c0.4,0,1-0.1,1.2-0.1v3.1c-0.5,0-1.7,0.2-2.5,0.2
			c-3.4,0-3.8-2.1-3.8-4v-7.1h-1.9v-2.4h1.9v-3.9h3.9v3.9h2.3L384,238.7L384,238.7z"/>
		<g>
			<g opacity="0.6">
				<path fill="#231F20" d="M147.9,151.4c0,7.6-6.2,13.8-13.8,13.8c-7.6,0-13.7-6.2-13.7-13.8c0-7.6,6.2-13.8,13.7-13.8
					C141.7,137.7,147.9,143.8,147.9,151.4z"/>
				<polygon fill="#231F20" points="123.5,173.2 145.4,173.2 145.4,195.2 141.2,214.8 145.4,241.8 145.4,260.8 123.5,260.8 				"/>
				<path fill="#231F20" d="M179.5,151.4c0,7.6-6.2,13.8-13.8,13.8c-7.6,0-13.7-6.2-13.7-13.8c0-7.6,6.2-13.8,13.7-13.8
					C173.3,137.7,179.5,143.8,179.5,151.4z"/>
				<rect x="155.1" y="173.2" fill="#231F20" width="21.9" height="87.6"/>
			</g>
			<g>
				<path fill="#231F20" d="M116,151.4c0,7.6-6.2,13.8-13.8,13.8c-7.6,0-13.7-6.2-13.7-13.8c0-7.6,6.2-13.8,13.7-13.8
					C109.8,137.7,116,143.8,116,151.4z"/>
				<rect x="90.2" y="173.2" fill="#231F20" width="21.9" height="87.6"/>
				<polygon fill="#231F20" points="6.3,173.2 28.4,173.2 60.3,229.2 60.5,229.2 60.5,173.2 80.4,173.2 80.4,260.8 58.5,260.8 
					26.4,205.7 26.2,205.7 26.2,260.8 6.3,260.8 				"/>
				<path fill="#231F20" d="M183.4,201.5c-3.1-8.1-10.6-13.2-18.2-13.2c-12,0-21.6,8.1-21.6,27.8c0,12.8,5.2,27.8,22.4,27.8
					c5.9,0,14.5-4.4,17.9-12.3l17.3,8.4c-7.5,13.7-20.5,22.4-35.3,22.4c-27.9,0-44.3-21.6-44.3-46.2c0-24.6,15.2-46.2,42.6-46.2
					c17.2,0,28.5,8.4,36.7,22.9L183.4,201.5z"/>
			</g>
		</g>
		<path fill="#231F20" d="M197.7,167.6H195v-0.9h6.3v0.9h-2.7v7.3h-1L197.7,167.6L197.7,167.6z M210.4,167.6L210.4,167.6l-3,7.3
			h-0.6l-3-7.3h0v7.3h-1v-8.2h1.7l2.6,6.6l2.6-6.6h1.7v8.2h-1L210.4,167.6L210.4,167.6z"/>
		<path fill="#231F20" d="M388.9,232.8h0.6c0.6,0,0.7,0,0.9,0.1c0.3,0.1,0.4,0.4,0.4,0.6c0,0.7-0.7,0.7-1.1,0.7h-0.7V232.8z
			 M388,232.1v5.1h0.9v-2.3h0.3c0.7,0,1,0.1,1.1,0.8c0,0.1,0.1,0.7,0.1,0.8c0.1,0.4,0.2,0.6,0.2,0.7h1c-0.2-0.5-0.3-0.7-0.4-1.5
			c-0.1-0.7-0.3-0.9-0.7-1.1c0.6-0.2,1-0.6,1-1.2c0-0.5-0.3-1-0.8-1.2c-0.3-0.1-0.7-0.1-1.2-0.1L388,232.1L388,232.1z M393.7,234.7
			c0-2.2-1.7-4.1-4.1-4.1c-2.2,0-4,1.7-4,4.1c0,2.4,1.9,4,4,4C392,238.7,393.7,236.9,393.7,234.7z M393.4,234.7c0,2-1.6,3.7-3.7,3.7
			c-2,0-3.7-1.6-3.7-3.7c0-2,1.6-3.7,3.7-3.7C391.8,231,393.4,232.7,393.4,234.7z"/>
	</g>
</g>
<g id="pinsight">
	<g>
		<path fill="#231F20" d="M8.6,156.2l37.1,39.3c1.6,1.6,1.6,4.2,0,5.8L8.6,240.7V156.2z"/>
		<path fill="#231F20" d="M98.1,240.7L61,201.4c-1.6-1.6-1.6-4.2,0-5.8l37.1-39.3V240.7z"/>
		<path fill="#231F20" d="M11.2,243.2l39.3-37.1c1.6-1.6,4.2-1.6,5.8,0l39.3,37.1H11.2z"/>
		<path fill="#231F20" d="M95.6,153.6l-39.3,37.1c-1.6,1.6-4.2,1.6-5.8,0l-39.3-37.1H95.6z"/>
		<g>
			<path fill="#231F20" d="M127.5,218.7c-2.3,0-4.1-0.1-6.3-0.5v20.4h-9v-62.1h8.5c0,2.2-0.1,5.5-0.5,7.8h0.2
				c2.3-5.3,7.1-8.6,13.5-8.6c9.9,0,15.3,7,15.3,19.6C149.3,209.9,141.5,218.7,127.5,218.7z M131.6,183c-6.7,0-10.3,7.9-10.3,15
				v12.8c1.9,0.6,4,0.8,6.5,0.8c7.1,0,12-4.4,12-15.6C139.8,187.7,137.2,183,131.6,183z"/>
			<path fill="#231F20" d="M162.7,170.2c-3.2,0-5.8-2.5-5.8-5.6c0-3.1,2.6-5.6,5.8-5.6c3.1,0,5.7,2.4,5.7,5.6
				C168.4,167.7,165.9,170.2,162.7,170.2z M158.2,218.1v-41.7h9v41.7H158.2z"/>
			<path fill="#231F20" d="M203.9,218.1v-26.8c0-5.2-1.4-8.2-6.2-8.2c-6.3,0-10.9,6.6-10.9,14.9v20.1h-9v-41.7h8.5
				c0,2.2-0.2,5.8-0.6,8.1l0.1,0.1c2.4-5.4,7.5-9.1,14.5-9.1c9.5,0,12.4,6,12.4,13.3v29.2H203.9z"/>
			<path fill="#231F20" d="M230.1,218.9c-3.1,0-6.2-0.3-8.8-0.8l0.3-7.6c2.6,0.8,5.9,1.3,9.1,1.3c4.9,0,8.2-2.1,8.2-5.5
				c0-8.4-18.3-3.4-18.3-17.8c0-7.2,5.9-12.9,17.2-12.9c2.4,0,5.3,0.3,7.8,0.8l-0.3,7.3c-2.5-0.8-5.4-1.2-8.1-1.2
				c-4.9,0-7.4,2-7.4,5.2c0,8,18.4,3.9,18.4,17.8C248.2,213.2,241.2,218.9,230.1,218.9z"/>
			<path fill="#231F20" d="M261.7,170.2c-3.2,0-5.8-2.5-5.8-5.6c0-3.1,2.6-5.6,5.8-5.6c3.1,0,5.7,2.4,5.7,5.6
				C267.4,167.7,264.8,170.2,261.7,170.2z M257.1,218.1v-41.7h9v41.7H257.1z"/>
			<path fill="#231F20" d="M292,239.6c-10.9,0-17.7-4.2-17.7-12.2c0-4.7,3.1-8.6,6.7-10.5c-2.5-1.3-4.1-3.4-4.1-6.2
				c0-3,1.8-5.9,4.8-7.1c-4.1-2.3-6.2-6.5-6.2-11.7c0-8.8,6.7-16.2,18.6-16.2c2.5,0,4.6,0.3,6.9,0.8H315v7h-6.4
				c1.8,1.4,2.9,3.9,2.9,7c0,9.1-6.3,15.4-18,15.4c-1.6,0-3.5-0.2-4.8-0.4c-1.7,0.7-2.4,1.9-2.4,3.1c0,2.1,1.8,2.9,6.9,2.9h7.1
				c9.1,0,14.2,4.3,14.2,12.1C314.5,232.4,305.4,239.6,292,239.6z M297.9,218.8h-7.8c-0.8,0-1.6,0-2.3-0.1c-2.9,1.6-4.6,4.1-4.6,7
				c0,4.4,4.2,7,10.2,7c7.8,0,12.2-3.4,12.2-7.9C305.6,221.1,303.1,218.8,297.9,218.8z M293.7,182.2c-6,0-9.5,3.6-9.5,8.7
				c0,5.4,3.4,8.6,9.4,8.6c5.6,0,9.3-3.1,9.3-8.5C302.9,185.5,299.5,182.2,293.7,182.2z"/>
			<path fill="#231F20" d="M349.3,218.1v-26.8c0-5.2-1.4-8.2-6.2-8.2c-6.3,0-10.9,6.6-10.9,15v20h-9v-61.2h9v18.9
				c0,2.6-0.2,6.1-0.8,8.4l0.2,0.1c2.4-5.2,7.4-8.6,14.2-8.6c9.5,0,12.4,6,12.4,13.3v29.2H349.3z"/>
			<path fill="#231F20" d="M383.1,218.8c-8.9,0-11.6-3.4-11.6-12.7v-22.7h-8v-7h8v-13.2l8.9-2.4v15.7h11v7h-10.9v20
				c0,6.2,1.3,7.9,5.4,7.9c1.8,0,3.9-0.3,5.4-0.7v7.4C389,218.4,385.9,218.8,383.1,218.8z"/>
		</g>
		<g>
			<g>
				<path fill="#231F20" d="M148.5,246.3l-1.3-8.8c-0.2-1.6-0.4-2.9-0.5-3.9h0c-0.2,0.9-0.5,2-0.8,3.2l-3.2,9.6H139l-2.9-8.9
					c-0.4-1.2-0.8-2.7-1-3.8h0c-0.1,1.3-0.2,2.5-0.4,4l-1.1,8.7H130l2.6-16.9h4.4l3.2,9.5c0.3,1,0.7,2.1,0.8,3.2h0
					c0.3-1.2,0.5-2,0.9-3.1l3.3-9.6h4.5l2.5,16.9H148.5z"/>
				<path fill="#231F20" d="M155.9,246.3v-16.9h10v2.8h-6.4v4.1h6.1v2.7h-6.1v4.6h6.4v2.8H155.9z"/>
				<path fill="#231F20" d="M175,246.4c-2.1,0-3.8-0.1-5.3-0.1v-16.9c1.5,0,4.2-0.1,6.1-0.1c5.6,0,9.1,2.4,9.1,8.3
					C185,243.6,180.7,246.4,175,246.4z M175.5,232.1c-0.7,0-1.6,0-2.2,0.1v11.2c0.5,0,1.4,0.1,2.1,0.1c3.5,0,5.9-1.9,5.9-5.7
					C181.3,234,179.3,232.1,175.5,232.1z"/>
				<path fill="#231F20" d="M188,246.3v-16.9h3.5v16.9H188z"/>
				<path fill="#231F20" d="M207.2,246.3L206,243h-7.1l-1.2,3.3h-3.5l6.4-16.9h4.1l6.4,16.9H207.2z M203.3,235.7
					c-0.3-0.9-0.6-1.9-0.9-2.7h0c-0.2,0.8-0.5,1.8-0.8,2.6l-1.8,4.8h5.3L203.3,235.7z"/>
				<path fill="#231F20" d="M221.8,239.3v5.9h-3.5v-5.9h-5.8v-3.1h5.8v-5.9h3.5v5.9h5.8v3.1H221.8z"/>
			</g>
			<g>
				<polygon fill="#231F20" points="228.9,229.7 230,229.7 230,233.4 231.1,233.4 231.1,229.7 232.2,229.7 232.2,228.7 228.9,228.7 
									"/>
				<path fill="#231F20" d="M237.1,228.7H236l-0.8,2.4c-0.1,0.2-0.1,0.3-0.2,0.5c0-0.2-0.1-0.3-0.2-0.5l-0.8-2.3H233l-0.7,4.6h1.1
					l0.3-2.1c0-0.2,0-0.4,0.1-0.5c0,0.2,0.1,0.3,0.2,0.5l0.7,2.1h1l0.7-2.3c0-0.1,0.1-0.3,0.1-0.4c0,0.2,0,0.3,0.1,0.5l0.3,2.2h1.1
					L237.1,228.7z"/>
			</g>
		</g>
	</g>
</g>
</svg>
