<svg xmlns="http://www.w3.org/2000/svg" viewBox="0 0 400 400" enable-background="new 0 0 400 400"><path d="M8.1 178.1v-41.7c0-1.6 0-1.6 1.6-1.6h74.3c1.4 0 1.4 0 1.4 1.6 0 16.9 0 33.9.2 50.8v1c0 .4-.2.6-.6.6h-13.7c-1.6 0-1.6 0-1.6-1.6v-34.9c0-2.9.4-2.5-2.5-2.5h-40.9c-2.9 0-2.5-.4-2.5 2.3v67.7c0 2.3.2 1.9-2.1 1.9h-11.7c-2.1 0-1.9.2-1.9-1.9v-41.7zm39.1 10.3h-14.1c-1.6 0-1.6 0-1.6-1.6v-28.3c0-1.4 0-1.4 1.4-1.4h28.9c1.4 0 1.4 0 1.4 1.4v28.3c0 1.4 0 1.4-1.4 1.4-5.1.2-9.9.2-14.6.2zm181.3 19.4c-.2.8-.2 1.4-.2 1.9v26.8c0 1.2 0 1.2-1.2 1.2h-3.7c-.8 0-1.2-.4-1-1.2v-36.8c0-1.9-.2-1.7 1.7-1.7 1.4 0 2.9-.4 3.9.2 1.2.6 1.7 1.9 2.5 2.9l19.8 25.4c.4.6.8 1.2 1.6 1.6v-29.3c0-.6.2-1 1-1h3.9c.6 0 1 .2.8 1v37c0 2.1.2 1.7-1.9 1.7-1.4 0-2.7.4-3.7-.2-1.2-.6-1.7-1.9-2.5-2.9l-20.4-26s-.2-.4-.6-.6zm-38.6-1l-3.3-1.9c-5-2.7-10.3-2.9-15.7-1.4-1.4.4-2.5 1-3.5 1.9-1.6 1.4-2.1 3.1-1.6 5 .6 1.7 1.9 2.5 3.7 2.9 1.2.2 2.1.4 3.3.4 2.7 0 5.4 0 8.3.2 3.3.2 6.6.8 9.5 2.5 6.2 3.3 6.8 12.4 2.3 16.9-1.2 1.2-2.5 2.1-4.1 2.9-2.5 1.2-5.2 1.9-7.9 2.1-4.3.4-8.5.4-12.6-1-3.9-1.2-7.4-3.1-10.3-6-.8-.8-.8-.8 0-1.7l2.5-2.5c.4-.4.8-.4 1.2 0 .8.6 1.6 1.4 2.5 1.9 6.4 4.3 13.4 4.8 20.7 2.5 1-.2 1.7-.8 2.5-1.4 3.7-2.3 2.9-7.8-.6-9.3-1.7-.8-3.7-1.2-5.6-1.2h-9.5c-1.9 0-3.9-.4-5.6-1-7.8-2.9-7.9-12-3.5-16.3 2.5-2.5 5.8-4.1 9.3-4.7 7.2-1.4 13.8.2 19.8 4.1 1.2.8 1.2.8.4 1.9-.4.9-1.2 2.2-2.2 3.2zm80.1 10.9v-19.4c0-.4.2-.6.6-.6h30.8c.8 0 1.2.2 1.2 1v3.9c0 .6-.2 1-1 1h-25.2c-.6 0-.8.2-.8 1v8.5c0 1 .6 1 1.2 1h9.5c2.7 0 2.7 0 2.7 2.7 0 1 .4 2.1-.2 2.9-.6.6-1.7.2-2.7.2h-9.3c-1.2 0-1.4 0-1.4 1.4v9.3c0 1.6 0 1.6 1.6 1.6h23.8c2.7 0 2.3-.4 2.3 2.5v2.3c0 .6-.2 1-1 1h-31.1c-1.4 0-1.4 0-1.4-1.6.4-6.5.4-12.5.4-18.7zm-143.3-.2v-19.2c0-.4.2-.6.6-.6h4.5c.4 0 .6.2.6.6v31.8c0 1.6 0 1.6 1.6 1.6h20.9c1.6 0 1.7 0 1.7 1.6v2.5c0 1.9 0 1.7-1.7 1.7h-27.5c-.6 0-.8-.2-.8-.8v-1.2c.1-6 .1-12 .1-18zm192.9-2.7v15.5c0 1.6 0 1.6 1.6 1.6h20.9c1.6 0 1.6 0 1.6 1.6v3.3c0 .6-.2 1-1 1h-27.7c-.8 0-1.2-.2-1.2-1v-37.8c0-.8.2-1.2 1-1.2h3.7c.8 0 1.2.2 1 1v5.8c.1 3.4.1 6.7.1 10.2zm30.9 2.9v-19.2c0-.6.2-.8.8-.8h3.9c.6 0 1 .2 1 .8v32.4c0 .6.2 1 .8 1h22.5c.6 0 .8.2.8.8v4.3c0 .4-.2.8-.6.8h-27.7c-1.2 0-1.2 0-1.2-1.4-.3-6.3-.3-12.5-.3-18.7zm-146.4 0v-19.2c0-.6.2-.8.8-.8h4.1c.6 0 .8.2.8.8v37.6c0 1.4 0 1.4-1.6 1.4h-3.2c-1 0-1.2-.4-1.2-1.2v-11.6c.3-2.2.3-4.7.3-7zm182.2 0v-19.2c0-.6.2-.8.8-.8h4.1c.6 0 .8.2.8.8v37.2c0 1.9 0 1.7-1.7 1.7h-2.7c-1 0-1.2-.4-1.2-1.2l-.1-18.5zm-275.7-14c-6-6.4-13.8-8.3-22.1-6-16.9 4.5-19.2 23.7-10.3 33.5 4.3 4.8 9.9 7 16.3 7 1.2 0 2.1 0 3.3-.2 9.5-1.4 16.9-8.3 17.8-18 .8-6-.7-11.6-5-16.3zm-1.1 18c-1.6 5.8-5.6 9.3-11.4 10.7-1.2.2-2.3.4-3.3.4-7.6 0-13.6-4.5-15.3-11.2-2.1-8.3 3.3-16.9 11.8-18.4 5.2-1 10.1.2 14 3.7 4.4 4 5.7 9 4.2 14.8zm-42.5-14.1c-.4-4.5-2.7-7.4-6.8-8.9-1.7-.6-3.5-.8-5.4-.8h-21.3c-.6 0-1 .2-1 .8v38.4c0 .6.2.8.8.8h3.9c.8 0 1-.4 1-1v-14.3c0-1.9-.2-1.7 1.7-1.7h16.9c5.2-.2 8.9-3.5 9.9-8.5.5-1.9.5-3.5.3-4.8zm-5.8 3.3c-.4 2.1-1.6 3.3-3.7 3.7-.8.2-1.6.2-2.5.2h-15.5c-1.2 0-1.2 0-1.4-1.4v-8.5c0-1.4 0-1.4 1.4-1.4h15.9c3.8 0 6.7 2.3 5.8 7.4z"/></svg>