<svg xmlns="http://www.w3.org/2000/svg" viewBox="0 0 400 400" enable-background="new 0 0 400 400"><g><path d="M18.1 247.5c-4.6 0-9.1-.6-12.7-1.4l.6-9.5c3.6 1.2 8.5 2.4 13.1 2.4 6.9 0 12.5-2.8 12.5-9.5 0-13.1-27.5-7.5-27.5-27.5 0-10.7 8.5-18 23-18 3.8 0 7.5.4 11.3 1.2l-.6 8.9c-3.6-1.2-7.7-1.8-11.3-1.8-7.7 0-11.9 3.6-11.9 8.7 0 12.5 27.5 7.7 27.5 27.1.2 11.1-8.9 19.4-24 19.4zm53.1-39.4c-7.5 0-11.5 8.7-11.5 16.4v14.1c2.2.6 4.6 1 7.3 1 7.9 0 13.3-4.7 13.3-17 0-9.3-3-14.5-9.1-14.5zm-4.6 39c-2.6 0-4.6 0-6.9-.6v19.8h-9.9v-65.5h9.3c0 2.4 0 6.1-.6 8.5h.2c2.6-5.7 7.9-9.5 15-9.5 10.9 0 17 7.7 17 21.4.1 16.4-8.7 25.9-24.1 25.9zm56-37.4c-9.1-1.6-13.7 4.7-13.7 18.4v18.6h-9.9v-45.5h9.5c0 2.6-.2 6.5-1 10.1h.2c2-6.1 6.7-11.9 15.2-11.1l-.3 9.5zm9.1-8.7h9.9v45.5h-9.9v-45.5zm5.2-6.7c-3.6 0-6.3-2.8-6.3-6.1s3-6.1 6.3-6.1 6.3 2.6 6.3 6.1c-.2 3.3-3 6.1-6.3 6.1zm45.7 52.2v-29.3c0-5.7-1.6-8.9-6.9-8.9-6.9 0-12.1 7.3-12.1 16.2v22h-9.9v-45.5h9.5c0 2.4-.2 6.3-.6 8.9 2.8-5.9 8.3-9.9 16-9.9 10.5 0 13.9 6.5 13.9 14.6v31.9h-9.9zm37.2.8c-9.9 0-12.9-3.8-12.9-13.9v-24.9h-8.9v-7.5h8.9v-14.4l9.9-2.6v17.2h12.3v7.5h-12.1v21.8c0 6.7 1.4 8.7 6.1 8.7 2 0 4.4-.2 6.1-.8v8.1c-2.9.4-6.2.8-9.4.8zm95.8-29.5c15.6-19.8 27.7-42.9 27.7-59.6 0-8.7-6.3-14.8-14.4-19.4-.1 18.3-6.4 60.6-13.3 79zm-51.1 48.7c36.4-12.1 89.3-40 125.9-64.9 3.2-2.2 5.5-4 5.5-7.5 0-5.9-10.9-13.9-16.2-17-28.9 29.7-86.5 74-115.2 89.4zm33.9-25.1c22.4-15.2 55-44.1 66.1-59.8 2.6-3.8 4.6-5.7 4.6-9.7 0-6.3-7.5-10.9-12.9-14.2-12.9 30.1-42 67.3-57.8 83.7zm20.3-42.6c3-19 1.2-41.8-2.6-56-2-7.7-9.1-16.6-15.8-19.4 8.9 24.2 16.3 58.6 18.4 75.4zm-6.3-26.5c-6.7-18.2-23.7-56-48.7-65.3 16.3 17.6 40.4 52.8 48.7 65.3zm25.1 69.1v5.1h-.8v-5.1h-1.6v-.6h4.2v.6h-1.8zM346.1 243.2c0-.6-.2-1.2-.2-1.4"/><path d="M235.6 186h-.6v1.4h.4c.8 0 1-.4 1-.8-.2-.4-.4-.6-.8-.6zm.8 3.7l-1.2-2v2h-.8v-4.4h1.2c1 0 1.4.4 1.4 1 0 .8-.4 1.2-1.2 1.2 0 .2.2.4.4.6l1 1.4h-.8v.2zm-.8-5.1c-1.8 0-3.2 1.4-3.2 3 0 1.8 1.4 3.2 3.2 3.2s3.2-1.4 3.2-3c-.2-1.8-1.6-3.2-3.2-3.2zm0 6.9c-2.2 0-4-1.8-4-3.8 0-2.2 1.8-3.8 4-3.8s4 1.6 4 3.8c-.2 2-2 3.8-4 3.8zm110.8 55l-.6-3.4c-.2-.6-.2-1.2-.2-1.4 0 .2-.2.6-.2 1l-1.2 3.8h-.8l-1.2-3.6c-.2-.4-.4-1-.4-1.4 0 .4-.2 1-.2 1.6l-.4 3.4h-.8l.8-5.7h1l1.2 3.8.4 1.2c0-.4.2-.6.4-1.2l1.4-3.8h1l1 5.7h-1.2z"/></g></svg>