<svg xmlns="http://www.w3.org/2000/svg" viewBox="0 0 400 400" enable-background="new 0 0 400 400"><path d="M53.3 158.7l-4.9 4.9 13.7 15.6 4.5 5.7v.2c-1.2 0-2.1-.2-3.1-.2-1.2 0-2.1.2-3.1.2-1.2-1.8-2.5-3.5-3.9-5.1l-12.3-14.5c-.2-.2-1-.4-1-.2v19.7c-1 0-1.8-.2-2.5-.2l-2.5.2v-38.7c.8 0 1.6.2 2.5.2.8 0 1.6-.2 2.5-.2v17.4c0 .4.8.2 1.4-.4 1-.8 2.1-2 2.9-2.7l13.9-14.5 2.3.2c.6 0 1.4-.2 2.1-.2l-12.5 12.6zm43 8.8h-12.5l6.3-14.5 6.2 14.5zm-4.1-21.9h-1.4l-17.6 39.5c.6 0 1.2-.2 2-.2.6 0 1.4.2 2.1.2 1.6-5.3 3.5-10.2 5.5-15.2h14.5c2.3 5.1 4.3 10.6 5.9 15.2l2.9-.2 2.9.2-16.8-39.5zm30.9 22.5c0 10 2.7 15 12.5 15 9 0 12.3-6.4 12.3-15.6v-21.1l1.6.2 1.6-.2v22.7c0 11.1-6.6 16.8-16.6 16.8-5.7 0-9.4-1.4-12.3-3.9-3.5-3.3-4.1-8.2-4.1-12.7v-22.9c.8 0 1.6.2 2.5.2.8 0 1.6-.2 2.5-.2v21.7zm43.4-21.7h20.1l-.2 1.8.2 1.8c-1.8-.4-3.3-.6-5.1-.6l-5.7-.2h-4.3v14.3h8.8l5.1-.2c0 .4-.2 1-.2 1.6 0 .4.2 1 .2 1.6l-5.1-.2h-8.8v19.3c-1 0-1.8-.2-2.5-.2l-2.5.2v-39.2zm32.8 0h20.1l-.2 1.8.2 1.8c-1.8-.4-3.3-.6-5.1-.6l-5.7-.2h-4.3v14.3h8.8l5.1-.2c0 .4-.2 1-.2 1.6 0 .4.2 1 .2 1.6l-5.1-.2h-8.8v19.3c-1 0-1.8-.2-2.5-.2l-2.5.2v-39.2zm70.6 0c1.4 14.1 3.1 27.9 4.5 38.7l-2.7-.2-2.7.2c-1-11.3-2.1-23.6-2.9-29.1-6.6 11.7-11.3 20.7-14.9 28.5h-.2l-3.1-6.4c-3.7-7.4-7.6-14.9-11.3-22.1-1.2 10.9-2.7 22.3-2.7 29.1-.8 0-1.4-.2-2-.2-.8 0-1.4.2-2 .2 1.6-9.2 4.9-32.8 5.5-38.7h1.6c4.5 9 10 19.5 16 29.7 5.5-9.8 10.6-19.5 16.2-29.7h.7zm36.1 21.1h-12.5l6.3-14.5 6.2 14.5zm-4.3-21.9h-1.4l-17.6 39.5c.6 0 1.2-.2 2-.2.6 0 1.4.2 2.1.2 1.6-5.3 3.7-10.4 5.7-15.2h14.5c2.3 5.1 4.3 10.6 5.9 15.2l2.9-.2 2.9.2-17-39.5zm60.8 39.5h-1.8c-.6-.8-1.8-2.1-2.9-3.5l-24.4-27h-.4v30.5l-1.6-.2c-.6 0-1.2.2-1.6.2v-38.7h2.1l26.8 29.1h.6v-29.1l1.6.2 1.6-.2v38.7zm-347.9 33c0 1.8 0 2.5.2 3.3-.8 0-1.6-.2-1.8-.2-.4 0-.8 0-1.6.2l.2-5.5v-9.4h-1.4c-.2 0-2.5 0-3.7.2 0-.2.2-.6.2-1 0-.2 0-.6-.2-1 2 .2 4.5.2 6.4.2s4.1 0 6.4-.2c0 .4-.2.8-.2 1s0 .4.2.8c-1.4-.2-3.1-.2-4.7-.2v11.8zm9.8-13.6c-.2 2.7-.2 4.5-.2 7.4 1-1.6 2.3-2 3.7-2 1.2 0 2.5.4 3.3 1.6.6.8.6 1.8.6 2.9v2.5c0 1.4 0 3.5.2 4.5-.4 0-1-.2-1.6-.2s-1.4.2-1.6.2c.2-1.4.2-3.3.2-5.1 0-2.1 0-2.9-.2-3.3-.2-1-1.2-1.6-2.1-1.6-1 0-2 .4-2.3 1.6-.2.6-.2 1.2-.2 2.7 0 3.1 0 3.3.2 5.5-.4 0-1-.2-1.6-.2s-1.2.2-1.4.2c.2-3.3.2-4.3.2-9.4v-4.7c0-1 0-2.3-.2-3.7.4 0 1 .2 1.6.2s1 0 1.4-.2v1.1zm13.1 11.3c0 1 0 4.5 3.9 4.5 1.2 0 2.5-.6 3.3-1.6l.2.2-.2.6-.2 1c-.2.2-1.8 1.2-4.1 1.2-1 0-2.9-.2-4.3-1.6-1.6-1.6-1.6-3.7-1.6-4.5 0-3.9 2.7-5.9 5.7-5.9 1 0 3.3 0 4.5 2.1.4.8.8 2 .8 3.9l-8 .1zm5.3-1.2c0-1.2 0-3.9-2.3-3.9-2.5 0-2.5 2.9-2.7 3.9h5zm15.2-2.5h1.6c1.8 0 2.9 0 3.9-.2l-.2.8c0 .2 0 .6.2.8h-5.5v7.8c-.6-.2-1-.2-1.8-.2-.6 0-1.2 0-1.6.2.2-4.1.2-4.7.2-8.6 0-3.1-.2-5.7-.2-8 .8 0 3.3.2 4.5.2 1.6 0 3.1 0 4.5-.2l-.2 1c0 .2 0 .4.2.8-2.1-.2-3.7-.2-5.9-.2v5.9l.3-.1zm13.5-2.4c3.7 0 6.1 2.1 6.1 6.1 0 3.7-2.3 6.1-6.1 6.1-3.7 0-6.1-2.3-6.1-6.1 0-3.7 2.4-6.1 6.1-6.1zm0 11.2c2.5 0 3.1-2.9 3.1-5.1s-.4-5.1-3.1-5.1c-2.5 0-2.9 3.1-2.9 5.1-.2 1.9.2 5.1 2.9 5.1zm8.8-8.4c0-1 0-1.6-.2-2.5l1.6.2c.6 0 1 0 1.6-.2-.2 1.2-.2 4.1-.2 5.3 0 .6 0 2.7.2 3.1.2 1 1.2 1.6 2.1 1.6 1.6 0 2.1-1 2.3-1.4.4-.6.4-2 .4-2.9 0-1.6 0-4.3-.2-5.7l1.4.2c.4 0 .8 0 1.6-.2-.2 2.1-.2 4.3-.2 6.4 0 2.9 0 3.7.2 5.1-.6 0-1.2-.2-1.6-.2s-.8 0-1.4.2v-2c-.6.8-1.8 2.1-3.9 2.1-1.4 0-2.7-.6-3.3-2-.4-.8-.4-2-.4-2.3v-4.8zm24 6c0 1.2 0 2.3.2 2.9l-1.6-.2c-.6 0-1.2 0-1.6.2.2-1.2.2-3.3.2-4.5s0-3.1-.2-3.9c-.2-1.2-1.2-1.6-2.1-1.6s-1.8.6-2.1 1.4c-.4.8-.4 2.3-.4 3.1 0 2.1 0 3.7.2 5.5l-1.6-.2c-.4 0-1 0-1.6.2.2-3.1.2-3.5.2-6.4 0-3.1 0-3.3-.2-5.1.2 0 .8.2 1.6.2.6 0 1 0 1.4-.2-.2.8-.2.8-.2 2 1-1.4 2-2.1 3.7-2.1 2.5 0 4.1 1.6 4.1 4.1.2.7 0 3.5 0 4.6zm11.8 1.4c-.6.8-1.8 2-3.7 2-3.1 0-5.3-2.5-5.3-5.9 0-4.1 2.3-6.1 5.5-6.1 1.8 0 2.5.8 3.5 1.6 0-3.1 0-5.7-.2-7.8.6 0 1 .2 1.8.2.6 0 1 0 1.4-.2-.2 2.9-.2 5.7-.2 8.6 0 .4 0 7.8.2 9.2-.2 0-.8-.2-1.4-.2s-1 0-1.4.2l-.2-1.6zm0-4.3c0-2.3-.6-4.5-2.9-4.5s-2.9 2.5-2.9 4.3.4 4.9 2.9 4.9c1.7 0 2.9-1.4 2.9-4.7zm9.9-.8c1.4-.4 1.6-.4 1.8-.6v-.4c0-1.8-1-2.5-2.3-2.5-1.8 0-2.5 1.2-2.5 1.8h-.8l.2-1.2v-.6c1.8-1.2 2.5-1.4 3.9-1.4 2.5 0 4.3 1.2 4.3 3.5v4.1c0 2.3 0 2.9.8 2.9.2 0 .4 0 .6-.2v.8c-.6.2-1.4.6-2 .6-1.4 0-1.8-.8-2-1.6-.8 1-2 1.6-3.1 1.6-2.7 0-3.3-2-3.3-2.9 0-2.7 1.6-3.1 3.9-3.7l.5-.2zm1.8.8c-2.7.8-3.7 1-3.7 2.7 0 1.4.6 2.1 1.6 2.1 1.4 0 2.1-1 2.1-2.3v-2.5zm9.9-9.8c0 .4 0 .8-.2 4.3h2.5v1.4h-2.5v4.7c0 3.5.2 4.5 1.8 4.5.6 0 1-.2 1.4-.6v1.2c-.8.4-2 .8-2.7.8-.6 0-1.6-.2-2.1-.6-.8-.6-1-1.8-1-2.7 0-1 .2-5.3.2-7.2h-2v-1.4h1.8v-2.7c1.3-.7 2.1-1.5 2.8-1.7zm4.5.2c0-1 .8-1.8 1.6-1.8 1 0 1.8.8 1.8 1.8s-.8 1.6-1.8 1.6c-.8.2-1.6-.6-1.6-1.6zm.4 12.9v-2.9c0-1.8 0-4.3-.2-6.1.4 0 1 .2 1.6.2.8 0 1.2 0 1.6-.2v1.2c0 1-.2 3.3-.2 4.1v6.3c-.4 0-.8-.2-1.4-.2-.6 0-1.2 0-1.6.2l.2-2.6zm11.6-9.2c3.7 0 6.1 2.1 6.1 6.1 0 3.7-2.3 6.1-6.1 6.1s-6.1-2.3-6.1-6.1 2.5-6.1 6.1-6.1zm0 11.2c2.5 0 2.9-2.9 2.9-5.1s-.4-5.1-2.9-5.1-2.9 3.1-2.9 5.1.3 5.1 2.9 5.1zm19.1-2.4c0 1.2 0 2.3.2 2.9l-1.6-.2c-.6 0-1.2 0-1.6.2.2-1.2.2-3.3.2-4.5s0-3.1-.2-3.9c-.2-1.2-1.2-1.6-2.1-1.6-1 0-1.8.6-2.1 1.4-.4.8-.4 2.3-.4 3.1 0 2.1 0 3.7.2 5.5l-1.6-.2c-.4 0-1 0-1.6.2.2-3.1.2-3.5.2-6.4 0-3.1 0-3.3-.2-5.1.2 0 .8.2 1.6.2.6 0 1 0 1.4-.2-.2.8-.2.8-.2 2 1-1.4 2-2.1 3.7-2.1 2.5 0 4.1 1.6 4.1 4.1.2.7 0 3.5 0 4.6zm15.3-8.8c3.7 0 6.1 2.1 6.1 6.1 0 3.7-2.3 6.1-6.1 6.1s-6.1-2.3-6.1-6.1 2.4-6.1 6.1-6.1zm0 11.2c2.5 0 2.9-2.9 2.9-5.1s-.4-5.1-2.9-5.1-3.1 3.1-3.1 5.1.3 5.1 3.1 5.1zm14.6-14.7c-.6-.4-1.6-.4-1.8-.4-.4 0-1.6 0-1.6 1.6 0 .6.4 2.1.6 2.9h2.5v1.2h-2.5v1.4c0 .6 0 6.8.2 9-.4 0-1-.2-1.6-.2s-1.2 0-1.6.2c.2-.8.2-1 .2-2.3v-7.8h-1.6v-1.2h1.8c.2-1.8.2-2.5 1-3.9.2-.6 1.4-2.5 3.9-2.5h.8c-.2.4-.2.8-.2 1.2.1-.2.1.2-.1.8zm11.6 5.9c1.2 0 3.9 0 5.3-.2l-.2.8c0 .4 0 .6.2.8-.6 0-1.2 0-1.8-.2h-3.3v6.4c.6 0 3.7 0 5.7-.2 0 .2-.2.4-.2.8s0 .6.2.8c-1.4 0-2.9-.2-4.5-.2-1.4 0-2.9 0-4.5.2 0-1 0-2 .2-2.9v-5.5c0-1 0-5.7-.2-8l4.3.2c1.2 0 2.7 0 4.5-.2 0 .2-.2.4-.2.8s0 .8.2 1l-2.3-.2h-3.3l-.1 5.8zm18.7 6.4c0 1.2 0 2.3.2 2.9l-1.6-.2c-.6 0-1.2 0-1.6.2.2-1.2.2-3.3.2-4.5s0-3.1-.2-3.9c-.2-1.2-1.2-1.6-2.1-1.6-1 0-1.8.6-2.1 1.4-.4.8-.4 2.3-.4 3.1 0 2.1 0 3.7.2 5.5l-1.6-.2c-.4 0-1 0-1.6.2.2-3.1.2-3.5.2-6.4 0-3.1 0-3.3-.2-5.1.2 0 .8.2 1.6.2.6 0 1 0 1.4-.2-.2.8-.2.8-.2 2 1-1.4 2-2.1 3.7-2.1 2.5 0 4.1 1.6 4.1 4.1.2.7 0 3.5 0 4.6zm7.1-12.7c0 .4 0 .8-.2 4.3h2.5v1.4h-2.5v4.7c0 3.5.2 4.5 1.8 4.5.6 0 1-.2 1.4-.6v1.2c-.8.4-2 .8-2.7.8-.6 0-1.6-.2-2.1-.6-.8-.6-1-1.8-1-2.7 0-1 .2-5.3.2-7.2h-2v-1.4h1.8v-2.7c1.2-.7 2.2-1.5 2.8-1.7zm4.5 13.3v-3.9c0-2.5 0-3.1-.2-5.3l1.6.2c.6 0 1 0 1.4-.2-.2 1.2-.2 1.4-.2 2.5.6-1 1.6-2.7 3.5-2.7h.6c-.2.4-.2 1.4-.2 1.8 0 .4 0 .8.2 1l-.2.2c-.4-.4-1.4-.4-1.4-.4-1.2 0-1.8.6-2.1 1.4-.2.4-.2.8-.2 2.3s0 3.9.2 5.3c-.2 0-1-.2-1.4-.2s-1 0-1.6.2v-2.2zm10.9-3.3c0 1 0 4.5 3.9 4.5 1.2 0 2.5-.6 3.3-1.6l.2.2-.2.6-.2 1c-.2.2-1.8 1.2-4.1 1.2-1 0-2.9-.2-4.3-1.6-1.6-1.6-1.6-3.7-1.6-4.5 0-3.9 2.7-5.9 5.7-5.9 1 0 3.3 0 4.5 2.1.4.8.8 2 .8 3.9l-8 .1zm5.3-1.2c0-1.2 0-3.9-2.3-3.9-2.5 0-2.5 2.9-2.7 3.9h5zm8-2.9c.6-1 1.8-2 3.7-2 3.3 0 5.1 2.9 5.1 6.1 0 2.7-1.6 6.1-5.5 6.1-1.8 0-2.7-.8-3.3-1.6 0 3.5 0 5.7.2 7.6-.4 0-.8-.2-1.6-.2-.6 0-1 0-1.6.2.2-2.9.2-7.6.2-9 0-2.5 0-6.3-.2-8.8.4 0 1 .2 1.6.2s1 0 1.4-.2v1.6zm2.9-.6c-2.3 0-2.9 2.7-2.9 4.7 0 2.1.4 4.7 2.9 4.7 2.3 0 2.7-2.7 2.7-4.5.3-1.6.1-4.9-2.7-4.9zm8.8 8v-3.9c0-2.5 0-3.1-.2-5.3l1.6.2c.6 0 1 0 1.4-.2-.2 1.2-.2 1.4-.2 2.5.6-1 1.6-2.7 3.5-2.7h.6c-.2.4-.2 1.4-.2 1.8 0 .4 0 .8.2 1l-.2.2c-.4-.4-1.4-.4-1.4-.4-1.2 0-1.8.6-2.1 1.4-.2.4-.2.8-.2 2.3s0 3.9.2 5.3c-.2 0-1-.2-1.4-.2s-1 0-1.6.2v-2.2zm11-3.3c0 1 0 4.5 3.9 4.5 1.2 0 2.5-.6 3.3-1.6l.2.2-.2.6-.2 1c-.2.2-1.8 1.2-4.1 1.2-1 0-2.9-.2-4.3-1.6-1.6-1.6-1.6-3.7-1.6-4.5 0-3.9 2.7-5.9 5.7-5.9 1 0 3.3 0 4.5 2.1.4.8.8 2 .8 3.9l-8 .1zm5.2-1.2c0-1.2 0-3.9-2.3-3.9-2.5 0-2.5 2.9-2.7 3.9h5zm15.9 3.9c0 1.2 0 2.3.2 2.9l-1.6-.2c-.6 0-1.2 0-1.6.2.2-1.2.2-3.3.2-4.5s0-3.1-.2-3.9c-.2-1.2-1.2-1.6-2.1-1.6s-1.8.6-2.1 1.4c-.4.8-.4 2.3-.4 3.1 0 2.1 0 3.7.2 5.5l-1.6-.2c-.4 0-1 0-1.6.2.2-3.1.2-3.5.2-6.4 0-3.1 0-3.3-.2-5.1.2 0 .8.2 1.6.2.6 0 1 0 1.4-.2-.2.8-.2.8-.2 2 1-1.4 2-2.1 3.7-2.1 2.5 0 4.1 1.6 4.1 4.1v4.6zm5.6-2.7c0 1 0 4.5 3.9 4.5 1.2 0 2.5-.6 3.3-1.6l.2.2-.2.6-.2 1c-.2.2-1.8 1.2-4.1 1.2-1 0-2.9-.2-4.3-1.6-1.6-1.6-1.6-3.7-1.6-4.5 0-3.9 2.7-5.9 5.7-5.9 1 0 3.3 0 4.5 2.1.4.8.8 2 .8 3.9l-8 .1zm5.1-1.2c0-1.2 0-3.9-2.3-3.9-2.5 0-2.5 2.9-2.7 3.9h5zm5.7-2.1c0-1 0-1.6-.2-2.5l1.6.2c.6 0 1 0 1.6-.2-.2 1.2-.2 4.1-.2 5.3 0 .6 0 2.7.2 3.1.2 1 1.2 1.6 2.1 1.6 1.6 0 2.1-1 2.3-1.4.4-.6.4-2 .4-2.9 0-1.6 0-4.3-.2-5.7l1.4.2c.4 0 .8 0 1.6-.2-.2 2.1-.2 4.3-.2 6.4 0 2.9 0 3.7.2 5.1-.6 0-1.2-.2-1.6-.2s-.8 0-1.4.2v-2c-.6.8-1.8 2.1-3.9 2.1-1.4 0-2.7-.6-3.3-2-.4-.8-.4-2-.4-2.3-.2-1.5 0-3.1 0-4.8zm13.7 6.6v-3.9c0-2.5 0-3.1-.2-5.3l1.6.2c.6 0 1 0 1.4-.2-.2 1.2-.2 1.4-.2 2.5.6-1 1.6-2.7 3.5-2.7h.6c-.2.4-.2 1.4-.2 1.8 0 .4 0 .8.2 1l-.2.2c-.4-.4-1.4-.4-1.4-.4-1.2 0-1.8.6-2.1 1.4-.2.4-.2.8-.2 2.3s0 3.9.2 5.3c-.2 0-1-.2-1.4-.2s-1 0-1.6.2v-2.2zm9.2-.4c.2.6.8 1.8 2.9 1.8 1.2 0 1.8-.8 1.8-1.8s-1-1.4-2.1-1.8c-.4-.2-1.4-.6-1.6-.6-.4-.2-2-.8-2-3.1 0-2.1 1.6-3.7 4.1-3.7 1.4 0 2.5.4 3.1.8-.4 1-.6 1.6-.6 2.1h-.4c-.4-.8-.8-1.8-2.3-1.8-1.2 0-2 .6-2 1.6s.8 1.4 2.5 2c1.6.6 3.3 1 3.3 3.3 0 1.6-1.2 3.9-4.5 3.9-1.4 0-2.3-.4-3.5-1 0-.2.2-.6.4-1s.2-.8.2-1.2h.6v.5h.1zm12.7-14.2c-.2 2.7-.2 4.5-.2 7.4 1-1.6 2.3-2 3.7-2 1.2 0 2.5.4 3.3 1.6.6.8.6 1.8.6 2.9v2.5c0 1.4 0 3.5.2 4.5-.4 0-1-.2-1.6-.2s-1.4.2-1.6.2c.2-1.4.2-3.3.2-5.1 0-2.1 0-2.9-.2-3.3-.2-1-1.2-1.6-2.1-1.6-1 0-2 .4-2.3 1.6-.2.6-.2 1.2-.2 2.7 0 3.1 0 3.3.2 5.5-.4 0-1-.2-1.6-.2s-1.2.2-1.4.2c.2-3.3.2-4.3.2-9.4v-4.7c0-1 0-2.3-.2-3.7.4 0 1 .2 1.6.2s1 0 1.4-.2v1.1zm10.5 1.5c0-1 .8-1.8 1.6-1.8 1 0 1.8.8 1.8 1.8s-.8 1.6-1.8 1.6c-.8.2-1.6-.6-1.6-1.6zm.2 12.9v-2.9c0-1.8 0-4.3-.2-6.1.4 0 1 .2 1.6.2.8 0 1.2 0 1.6-.2v1.2c0 1-.2 3.3-.2 4.1v6.3c-.4 0-.8-.2-1.4-.2s-1.2 0-1.6.2l.2-2.6zm8.8-7.2c.6-1 1.8-2 3.7-2 3.3 0 5.1 2.9 5.1 6.1 0 2.7-1.6 6.1-5.5 6.1-1.8 0-2.7-.8-3.3-1.6 0 3.5 0 5.7.2 7.6-.4 0-.8-.2-1.6-.2-.6 0-1 0-1.6.2.2-2.9.2-7.6.2-9 0-2.5 0-6.3-.2-8.8l1.4.2c.6 0 1 0 1.4-.2l.2 1.6zm3.1-.6c-2.3 0-2.9 2.7-2.9 4.7 0 2.1.4 4.7 2.9 4.7 2.3 0 2.7-2.7 2.7-4.5.3-1.6.1-4.9-2.7-4.9z"/></svg>